<?xml version="1.0" standalone="no"?>
<!DOCTYPE svg PUBLIC "-//W3C//DTD SVG 20010904//EN"
 "http://www.w3.org/TR/2001/REC-SVG-20010904/DTD/svg10.dtd">
<svg version="1.0" xmlns="http://www.w3.org/2000/svg"
 width="300.000000pt" height="300.000000pt" viewBox="0 0 300.000000 300.000000"
 preserveAspectRatio="xMidYMid meet">
<metadata>
Created by potrace 1.10, written by Peter Selinger 2001-2011
</metadata>
<g transform="translate(0.000000,300.000000) scale(0.100000,-0.100000)"
fill="#000000" stroke="none">
<path d="M30 2971 c0 -17 -5 -33 -10 -36 -6 -4 -8 -11 -5 -16 4 -5 1 -9 -4 -9
-23 0 -9 -17 24 -29 43 -15 69 -60 60 -102 -7 -32 -48 -69 -76 -69 -11 0 -19
-4 -19 -10 0 -5 9 -10 20 -10 11 0 20 -5 20 -11 0 -5 -4 -7 -10 -4 -6 4 -10
-6 -10 -22 0 -16 -4 -23 -8 -17 -4 7 -7 -14 -8 -46 -1 -55 1 -58 30 -71 39
-18 61 -57 52 -92 -8 -31 -43 -67 -67 -67 -14 0 -16 -12 -16 -85 1 -80 2 -86
23 -91 36 -9 68 -51 68 -89 0 -39 -32 -80 -70 -89 -13 -4 -24 -11 -24 -16 0
-5 7 -7 15 -4 12 5 15 -3 15 -39 0 -31 -5 -47 -15 -51 -24 -9 -17 -21 20 -35
43 -15 69 -60 60 -102 -7 -32 -48 -69 -76 -69 -11 0 -19 -4 -19 -10 0 -5 10
-10 22 -10 17 0 19 -3 10 -12 -7 -7 -12 -20 -12 -31 0 -10 -4 -16 -8 -13 -4 3
-8 -19 -9 -48 -1 -50 1 -54 30 -67 40 -18 62 -57 53 -92 -7 -31 -43 -67 -66
-67 -14 0 -17 -13 -17 -85 -1 -81 1 -86 22 -91 37 -9 69 -50 69 -89 0 -39 -32
-80 -70 -89 -24 -6 -35 -28 -12 -24 21 5 22 -66 2 -86 -19 -19 -20 -18 24 -36
41 -16 66 -60 57 -101 -7 -32 -48 -69 -76 -69 -11 0 -19 -4 -19 -10 0 -5 9
-10 20 -10 18 0 19 -2 8 -22 -7 -13 -15 -25 -18 -28 -3 -3 -5 -28 -6 -56 -1
-48 1 -53 30 -65 39 -18 61 -57 52 -92 -7 -31 -43 -67 -66 -67 -14 0 -17 -13
-17 -85 -1 -78 1 -85 21 -91 53 -16 84 -71 66 -118 -7 -20 -6 -26 5 -26 24 0
36 70 20 119 -4 15 1 20 29 25 47 9 76 47 76 100 1 38 2 40 15 21 8 -11 19
-26 25 -33 20 -22 8 -57 -19 -57 -14 0 -26 -6 -29 -13 -2 -6 -9 -12 -16 -12
-6 0 -20 -14 -30 -31 -21 -35 -15 -119 9 -119 10 0 12 10 8 40 -7 47 14 86 54
101 65 25 138 -44 115 -110 -9 -25 -8 -31 3 -31 8 0 17 11 21 25 3 14 10 23
14 20 4 -3 10 9 12 25 4 30 -6 42 -15 18 -2 -7 -8 -10 -12 -5 -13 11 15 55 38
61 23 6 40 -4 20 -11 -7 -2 -10 -10 -7 -18 3 -7 1 -22 -5 -33 -14 -25 -3 -82
15 -82 10 0 11 6 4 26 -32 83 78 157 144 95 26 -25 37 -67 24 -100 -5 -15 -3
-21 7 -21 11 0 15 11 15 39 0 22 3 47 7 57 5 13 3 15 -7 9 -10 -6 -12 -4 -7 9
4 10 7 20 7 22 0 2 12 4 26 4 38 0 94 59 94 100 0 28 18 60 34 60 3 0 6 -17 6
-37 1 -21 7 -49 15 -63 20 -35 19 -37 -21 -38 -48 -2 -82 -25 -100 -67 -16
-38 -9 -95 12 -95 10 0 11 6 4 26 -13 34 -4 67 26 95 64 60 169 -5 144 -90 -7
-25 -6 -31 7 -31 13 0 15 11 11 61 -3 38 -10 64 -19 70 -10 6 -4 9 21 9 19 0
45 3 57 6 l23 6 -22 -39 c-16 -30 -19 -47 -14 -76 4 -22 13 -37 21 -37 11 0
12 6 5 26 -15 39 -12 51 19 86 66 74 175 13 150 -84 -6 -21 -4 -28 7 -28 17 0
20 74 5 113 -9 24 -8 25 32 29 23 3 43 4 45 3 1 -1 -2 -14 -8 -29 -16 -43 -13
-116 5 -116 11 0 12 5 5 26 -13 34 -4 67 26 95 66 62 176 -11 144 -95 -7 -20
-6 -26 4 -26 19 0 27 51 16 92 -14 46 -14 45 30 50 45 4 46 3 24 -41 -19 -37
-12 -101 11 -101 11 0 12 6 5 26 -13 34 -4 67 26 95 29 28 86 31 111 7 15 -16
15 -17 -7 -11 -15 4 -27 1 -35 -11 -11 -14 -13 -15 -19 -1 -13 34 -72 6 -64
-31 6 -30 34 -40 56 -20 12 10 23 13 26 8 3 -6 0 -12 -6 -15 -7 -2 1 -4 17 -4
37 -1 55 13 56 41 1 17 2 15 9 -7 5 -17 5 -39 0 -53 -7 -18 -6 -24 4 -24 8 0
16 6 19 13 4 9 7 9 18 0 18 -17 48 -18 31 -1 -17 17 -15 69 3 94 8 12 28 27
45 34 36 15 82 0 105 -34 18 -25 20 -77 3 -94 -9 -9 -8 -12 5 -12 10 0 19 11
23 28 3 15 8 35 11 46 3 10 1 16 -4 13 -4 -3 -13 6 -20 19 -14 30 -6 35 41 27
24 -4 34 -9 28 -17 -11 -15 -15 -71 -7 -96 3 -11 14 -20 23 -20 12 0 13 3 4
12 -15 15 -16 63 -2 89 6 10 24 26 41 34 37 19 90 6 114 -28 18 -26 20 -78 3
-96 -11 -10 -9 -12 7 -9 18 3 20 11 18 63 -1 33 -7 61 -13 63 -17 6 -11 20 8
17 9 -2 29 -4 44 -4 25 -1 26 -3 17 -30 -16 -47 -8 -105 16 -109 16 -3 18 -1
8 9 -16 16 -17 63 -2 91 6 11 26 26 45 34 29 12 39 12 68 0 18 -8 37 -19 41
-26 5 -8 0 -7 -14 2 -17 11 -25 11 -42 0 -15 -10 -24 -11 -32 -3 -18 18 -46
12 -57 -11 -10 -21 -10 -21 3 -6 8 10 22 18 31 18 22 0 31 -26 16 -45 -10 -12
-17 -12 -34 -3 -19 10 -20 10 -8 -5 10 -12 28 -15 68 -13 30 2 56 5 58 7 2 2
8 13 14 24 10 18 11 16 12 -16 0 -19 -5 -40 -12 -47 -9 -9 -7 -12 10 -12 20 0
22 5 22 49 0 28 -4 52 -9 55 -5 3 -11 14 -14 25 -4 16 -1 18 22 14 14 -3 33
-5 41 -5 12 0 15 -13 15 -65 0 -40 4 -68 11 -70 8 -3 10 10 7 40 -11 93 86
138 148 69 31 -35 34 -47 19 -86 -7 -21 -6 -26 5 -26 9 0 16 11 16 28 1 15 3
42 5 60 1 17 -1 30 -5 27 -4 -2 -8 2 -8 10 0 8 15 14 41 17 l41 3 -18 -37
c-19 -38 -17 -91 4 -104 17 -10 20 2 10 29 -19 50 29 117 84 117 57 0 107 -70
88 -121 -9 -23 -8 -29 2 -29 9 0 16 17 20 44 6 37 3 50 -16 77 -21 30 -21 32
-3 25 42 -18 64 -19 64 -2 0 11 -9 16 -29 16 -33 0 -81 48 -81 81 0 48 49 99
95 99 20 0 19 36 0 44 -19 7 -19 52 0 60 25 9 17 31 -12 34 -41 3 -77 44 -77
87 0 43 38 86 78 88 14 1 26 8 26 15 0 8 -10 12 -27 10 -23 -2 -27 1 -25 17 2
11 4 40 6 65 3 37 7 46 25 48 32 5 25 22 -9 22 -102 0 -105 157 -5 176 39 7
47 24 12 24 -20 0 -23 4 -19 35 3 23 -3 47 -17 71 -19 32 -20 36 -4 29 41 -17
63 -18 63 -1 0 11 -9 16 -29 16 -33 0 -81 48 -81 80 0 49 49 100 95 100 19 0
20 36 0 44 -8 3 -15 14 -15 25 0 11 7 26 15 35 22 22 18 31 -12 34 -15 1 -39
13 -52 27 -49 49 -20 135 50 150 40 9 38 29 -2 21 -30 -6 -31 -5 -23 22 4 15
9 45 10 67 1 33 5 41 23 43 32 5 25 22 -9 22 -44 0 -80 39 -80 85 0 45 45 95
84 95 32 0 34 16 3 24 -19 4 -23 11 -19 34 6 43 -27 93 -73 109 -21 7 -47 11
-57 7 -19 -6 -26 20 -8 31 6 3 10 21 10 39 0 40 23 76 35 56 5 -9 4 -15 -3
-18 -13 -4 -17 -42 -4 -42 5 0 15 -15 24 -33 23 -49 118 -90 118 -52 0 10 -10
15 -29 15 -33 0 -81 48 -81 80 0 49 49 100 95 100 19 0 20 36 0 44 -8 3 -15
17 -15 31 0 14 7 28 15 31 24 10 17 29 -11 31 -15 0 -38 13 -52 27 -50 50 -22
136 49 151 46 10 34 26 -13 19 l-43 -7 20 22 c12 14 20 39 21 69 2 39 5 48 23
50 32 5 25 22 -9 22 -48 0 -83 41 -78 91 3 31 0 39 -12 37 -11 -2 -15 -16 -15
-46 0 -38 -2 -42 -24 -42 -18 0 -21 3 -12 13 6 8 8 17 4 21 -4 4 -8 17 -8 28
0 12 -5 23 -12 25 -8 3 -10 -6 -6 -29 4 -27 0 -41 -22 -66 -56 -67 -161 -27
-153 59 2 27 0 39 -9 39 -7 0 -13 -6 -14 -12 -1 -7 -2 -20 -3 -28 -2 -8 -3
-23 -4 -32 -4 -34 -30 -20 -30 15 0 51 -1 57 -16 57 -11 0 -13 -9 -9 -35 5
-29 1 -39 -25 -65 -63 -62 -158 -24 -150 61 2 27 0 39 -9 39 -8 0 -13 -14 -13
-40 0 -22 -4 -40 -9 -40 -28 0 -41 14 -41 46 0 21 -5 34 -13 34 -9 0 -12 -11
-9 -34 5 -45 -12 -75 -53 -92 -61 -25 -120 18 -119 87 1 25 -3 39 -11 39 -8 0
-12 -12 -11 -32 1 -23 -3 -33 -14 -33 -10 0 -15 9 -15 27 1 14 -3 24 -7 22 -4
-3 -8 0 -8 5 0 6 -6 11 -13 11 -9 0 -11 -12 -9 -38 3 -30 -2 -43 -24 -65 -57
-57 -149 -19 -149 62 0 23 -3 41 -6 41 -10 0 -21 -49 -14 -60 10 -16 -11 -11
-25 5 -7 8 -8 15 -3 15 5 0 10 6 10 14 0 8 -6 12 -14 9 -7 -3 -13 0 -13 6 0 6
-7 11 -15 11 -12 0 -13 -5 -3 -25 25 -56 -43 -124 -104 -103 -40 14 -61 50
-56 93 3 24 0 35 -9 35 -7 0 -13 -4 -13 -10 0 -5 -7 -10 -15 -10 -8 0 -15 5
-15 10 0 6 -6 10 -14 10 -11 0 -13 -8 -9 -33 3 -24 -1 -39 -17 -60 -32 -40
-63 -50 -105 -33 -41 17 -58 47 -53 92 3 22 0 34 -8 34 -7 0 -14 -15 -16 -32
-2 -18 -7 -31 -13 -28 -5 3 -9 11 -7 18 3 13 -21 42 -35 42 -5 0 -8 -18 -8
-41 0 -82 -93 -119 -149 -60 -23 24 -28 36 -24 65 3 25 0 36 -9 36 -8 0 -13
-12 -13 -29 0 -16 -3 -36 -6 -45 -9 -25 -29 -19 -30 9 -1 14 2 25 7 25 5 0 9
8 9 18 0 14 -2 15 -10 2 -8 -13 -10 -12 -10 3 0 9 -6 17 -14 17 -11 0 -13 -9
-9 -35 5 -29 1 -39 -25 -65 -63 -62 -163 -17 -150 69 3 21 0 31 -9 31 -17 0
-27 -44 -14 -68 9 -16 7 -19 -12 -18 -19 1 -22 8 -25 44 -4 56 -27 57 -27 1 0
-82 -93 -119 -149 -60 -23 24 -28 36 -24 66 4 32 2 36 -16 33 -12 -2 -22 -11
-24 -22 -3 -11 0 -16 7 -12 7 4 11 -1 11 -13 0 -12 -4 -21 -10 -21 -5 0 -10 5
-10 11 0 5 -4 7 -10 4 -6 -4 -10 7 -10 24 0 18 -5 31 -12 31 -8 0 -13 -15 -14
-41 -1 -81 -92 -119 -148 -62 -22 22 -27 35 -24 65 2 26 0 38 -9 38 -9 0 -13
-15 -13 -43 0 -48 -5 -58 -26 -50 -9 3 -14 21 -14 49 0 40 -2 44 -25 44 -14 0
-24 -3 -24 -7 6 -37 -39 -48 -48 -13 -3 11 -9 20 -13 20 -4 0 -10 -9 -13 -20
-3 -12 -14 -20 -27 -20 -13 0 -24 8 -27 20 -3 11 -14 20 -24 20 -14 0 -19 -7
-19 -29z m112 -30 c36 2 53 7 61 21 16 25 27 23 27 -6 0 -14 -12 -38 -26 -55
-53 -64 -154 -28 -154 55 l0 37 21 -27 c18 -23 27 -26 71 -25z m185 -83 c66
-60 9 -172 -78 -153 -87 19 -92 150 -6 173 37 10 54 6 84 -20z m261 -4 c51
-58 12 -144 -66 -144 -63 0 -106 63 -82 121 26 61 103 73 148 23z m251 10 c17
-14 31 -31 31 -36 0 -6 8 -17 18 -25 9 -8 12 -12 5 -8 -8 3 -18 -8 -27 -29
-27 -65 -106 -78 -150 -25 -41 48 -32 104 22 133 40 22 67 19 101 -10z m248 6
c76 -46 42 -160 -48 -160 -93 0 -123 120 -41 164 36 20 51 20 89 -4z m281 -16
c51 -58 12 -144 -67 -144 -32 0 -44 6 -65 31 -29 34 -32 62 -12 98 31 55 102
63 144 15z m259 4 c32 -30 32 -90 -2 -123 -71 -72 -190 17 -139 104 32 55 94
63 141 19z m225 3 c90 -80 -27 -206 -118 -127 -60 51 -15 152 68 155 10 1 32
-12 50 -28z m247 14 c81 -41 50 -165 -41 -165 -73 0 -114 79 -72 138 28 40 69
50 113 27z m261 0 c56 -29 66 -85 24 -134 -71 -85 -202 16 -138 107 28 41 69
50 114 27z m269 0 c83 -42 49 -165 -46 -165 -80 0 -114 102 -52 154 35 30 58
32 98 11z m260 0 c83 -42 49 -165 -46 -165 -80 0 -114 102 -52 154 35 30 58
32 98 11z m-2729 -41 c0 -10 -6 -14 -15 -10 -8 3 -15 1 -15 -4 0 -6 4 -10 9
-10 5 0 12 -15 15 -33 10 -51 49 -87 96 -87 38 0 52 -12 30 -25 -5 -3 -10 -24
-10 -46 0 -32 -3 -39 -20 -39 -13 0 -20 7 -20 20 0 33 -27 88 -49 99 -11 7
-36 12 -55 13 -28 1 -33 4 -26 17 17 32 23 57 21 89 -2 26 1 32 18 32 13 0 21
-6 21 -16z m234 -21 c-3 -29 -2 -33 5 -18 10 20 10 20 10 0 1 -11 8 -33 16
-49 8 -15 15 -30 15 -32 0 -7 -45 -4 -56 4 -17 11 -15 132 1 132 10 0 12 -11
9 -37z m280 -21 c0 -31 4 -62 9 -69 7 -9 -3 -12 -40 -11 -41 1 -44 2 -23 10
18 7 21 11 11 17 -9 6 -10 14 -5 22 9 15 10 20 12 62 2 18 7 27 20 27 14 0 17
-9 16 -58z m242 50 c16 -10 25 -102 10 -102 -6 0 -2 -7 8 -15 14 -11 16 -15 5
-15 -8 1 -25 10 -38 21 -22 18 -23 21 -7 37 20 23 21 48 0 56 -8 3 -12 10 -9
16 7 12 16 12 31 2z m259 -1 c-3 -5 -1 -12 5 -16 5 -3 10 -21 10 -40 0 -19 5
-37 10 -40 22 -13 8 -25 -30 -25 -38 0 -52 12 -30 25 6 3 10 28 10 56 0 38 4
49 16 49 8 0 13 -4 9 -9z m766 -18 c1 -16 1 -33 0 -40 -1 -6 3 -15 9 -18 15
-9 -27 -55 -49 -55 -17 -1 -61 -30 -45 -30 5 0 2 -5 -8 -10 -9 -6 -14 -18 -11
-29 4 -15 0 -18 -21 -14 -21 4 -25 10 -21 24 4 11 2 19 -4 19 -6 0 -11 5 -11
10 0 6 11 10 25 10 45 0 94 38 95 73 0 10 3 16 8 14 4 -3 8 11 9 31 1 26 -1
32 -7 22 -8 -13 -10 -12 -10 3 0 10 8 17 20 17 15 0 20 -7 21 -27z m272 -45
c4 -29 2 -38 -8 -38 -8 0 -12 -6 -9 -14 4 -10 -5 -15 -28 -18 l-33 -3 15 32
c8 18 22 33 30 33 10 1 11 3 3 7 -7 2 -13 11 -13 19 0 9 4 13 9 9 5 -3 12 -1
15 4 4 5 2 12 -4 16 -6 4 -7 11 -4 17 9 14 18 -11 27 -64z m243 45 c-3 -16 -3
-22 0 -15 10 23 22 12 26 -25 3 -21 8 -46 13 -56 5 -13 4 -18 -6 -17 -41 6
-72 -3 -97 -27 -15 -16 -28 -34 -28 -40 -1 -7 -2 -24 -2 -38 -2 -20 -7 -25
-27 -25 -24 0 -26 3 -24 43 2 24 -1 49 -5 55 -5 8 2 12 21 12 50 0 70 11 87
46 9 19 16 53 16 74 0 30 4 40 16 40 12 0 15 -7 10 -27z m284 5 c0 -5 -6 -6
-12 -2 -10 6 -10 5 -1 -7 6 -8 13 -30 15 -49 1 -19 10 -40 18 -47 12 -10 4
-12 -43 -13 l-57 0 15 24 c23 35 36 84 23 92 -7 4 -6 9 3 14 14 10 39 2 39
-12z m-1298 -42 c-2 -9 2 -16 8 -16 5 0 10 -11 10 -24 0 -13 6 -27 13 -29 7
-3 4 -6 -6 -6 -10 -1 -27 4 -38 9 -13 7 -19 7 -19 0 0 -5 -8 -10 -17 -10 -15
0 -15 1 2 13 10 8 15 19 11 25 -3 6 -1 14 5 17 5 4 8 13 5 20 -6 16 4 27 18
22 6 -2 10 -11 8 -21z m-1254 -123 c41 -45 21 -121 -39 -142 -106 -37 -169
120 -66 164 40 17 76 10 105 -22z m227 23 c37 -16 55 -42 55 -81 0 -89 -125
-122 -165 -44 -29 54 -14 102 38 124 40 18 32 17 72 1z m259 0 c19 -8 37 -19
41 -26 5 -8 0 -7 -14 2 -17 11 -25 11 -42 0 -15 -10 -24 -11 -32 -3 -18 18
-45 13 -57 -10 -9 -16 -8 -25 6 -40 21 -24 32 -24 57 -1 17 14 19 15 15 1 -5
-12 0 -15 23 -14 32 2 31 2 47 30 10 18 11 17 12 -13 0 -44 -14 -68 -51 -88
-38 -19 -73 -12 -105 23 -42 46 -28 113 29 138 40 18 32 17 71 1z m299 -28
c24 -25 28 -36 23 -61 -13 -65 -73 -99 -126 -72 -51 26 -66 87 -34 133 35 50
92 50 137 0z m236 28 c28 -15 51 -53 51 -86 0 -10 -12 -32 -26 -49 -44 -53
-123 -40 -150 24 -17 41 -7 73 32 104 31 25 55 26 93 7z m279 -22 c41 -47 25
-115 -34 -140 -30 -13 -38 -12 -62 0 -16 8 -33 21 -39 28 -35 44 -21 107 30
132 40 20 75 13 105 -20z m262 1 c46 -46 27 -117 -40 -145 -36 -15 -83 7 -105
51 -17 33 -13 62 14 93 36 42 88 42 131 1z m263 -7 c24 -25 28 -36 23 -61 -13
-65 -73 -99 -126 -72 -51 26 -66 87 -34 133 35 50 92 50 137 0z m99 12 c-4 -3
-7 -12 -7 -20 0 -8 -5 -14 -11 -13 -6 1 -9 -8 -7 -21 3 -15 -1 -25 -11 -29
-12 -5 -16 0 -17 16 -1 12 -2 36 -4 54 -2 28 1 32 24 35 25 3 47 -11 33 -22z
m158 -5 c25 -27 31 -85 10 -110 -7 -9 -27 -23 -43 -31 -53 -28 -121 18 -121
81 0 81 99 119 154 60z m259 0 c56 -54 15 -145 -64 -145 -101 0 -124 131 -30
171 29 12 66 1 94 -26z m257 3 c45 -41 36 -104 -18 -138 -58 -36 -132 6 -132
74 0 81 91 120 150 64z m-2241 5 c-3 -10 -10 -38 -15 -62 -9 -49 -33 -74 -38
-39 -2 11 2 25 10 29 8 6 9 12 3 17 -5 4 -18 22 -27 40 l-17 32 46 0 c39 0 44
-2 38 -17z m535 8 c0 -6 -4 -13 -10 -16 -5 -3 -10 -29 -10 -56 0 -46 -2 -50
-22 -47 -16 2 -23 10 -23 28 -3 81 -5 91 -17 84 -7 -4 -8 -3 -4 4 9 14 86 16
86 3z m237 -46 c-6 -30 -14 -55 -19 -55 -5 0 -6 -4 -3 -10 3 -5 1 -10 -6 -10
-7 0 -9 10 -6 27 5 26 -4 51 -32 86 -13 16 -11 17 31 17 l45 0 -10 -55z m265
43 c-7 -7 -12 -23 -12 -36 0 -13 -4 -20 -10 -17 -5 3 -10 -1 -10 -9 0 -9 5
-16 10 -16 6 0 10 -9 10 -20 0 -11 -7 -20 -15 -20 -18 0 -29 41 -21 75 4 14 2
25 -4 25 -5 0 -10 7 -10 15 0 11 11 15 37 15 29 0 34 -3 25 -12z m1058 1 c0
-5 -3 -8 -7 -6 -7 5 -13 -25 -17 -80 -1 -17 -7 -23 -23 -23 -20 0 -23 5 -23
38 0 21 -7 48 -16 60 -15 22 -15 22 35 22 29 0 51 -5 51 -11z m260 8 c0 -2 -7
-18 -16 -36 -9 -17 -13 -38 -11 -46 5 -12 -12 -25 -33 -25 -5 0 -8 13 -8 28 1
15 -4 37 -11 49 -16 32 -15 33 34 33 25 0 45 -2 45 -3z m-2087 -14 c-7 -2 -13
-13 -13 -23 0 -11 -8 -23 -17 -29 -17 -9 -17 -10 0 -16 13 -6 15 -11 7 -21
-19 -22 -37 -5 -43 38 -3 23 -11 45 -19 49 -8 5 9 8 42 8 30 0 49 -3 43 -6z
m-186 -29 c3 -8 -1 -22 -9 -30 -19 -19 -52 3 -42 29 8 21 43 22 51 1z m80 0
c3 -8 -2 -23 -11 -32 -15 -15 -17 -15 -32 0 -21 21 -11 48 16 48 11 0 23 -7
27 -16z m-398 -130 c42 -35 44 -93 5 -129 -73 -68 -185 17 -139 104 28 55 86
66 134 25z m269 -10 c39 -45 26 -111 -28 -139 -81 -42 -165 68 -104 136 40 45
93 47 132 3z m237 24 c29 -13 55 -55 55 -88 0 -36 -53 -80 -95 -80 -70 0 -110
80 -69 138 27 39 67 50 109 30z m258 1 c62 -32 74 -94 28 -140 -60 -60 -151
-24 -151 60 0 32 6 44 31 65 33 28 58 32 92 15z m262 -1 c29 -13 55 -55 55
-88 0 -36 -53 -80 -95 -80 -70 0 -110 80 -69 138 27 39 67 50 109 30z m260 0
c29 -13 55 -55 55 -88 0 -36 -53 -80 -95 -80 -70 0 -110 80 -69 138 27 39 67
50 109 30z m265 -3 c58 -30 67 -90 21 -136 -60 -60 -151 -24 -151 59 0 27 7
44 23 59 39 36 65 40 107 18z m284 -15 c32 -31 28 -96 -7 -126 -61 -52 -146
-13 -147 68 0 51 48 93 99 84 19 -3 44 -15 55 -26z m253 6 c39 -34 39 -98 0
-132 -61 -52 -146 -13 -147 68 0 28 7 42 31 62 38 33 79 33 116 2z m264 -5
c20 -20 29 -39 29 -61 0 -40 -47 -90 -85 -90 -57 0 -94 36 -95 92 0 28 7 42
31 62 41 35 83 34 120 -3z m263 -1 c32 -31 28 -96 -7 -126 -61 -52 -146 -13
-147 68 0 51 48 93 99 84 19 -3 44 -15 55 -26z m-2254 -64 c0 -27 -7 -30 -34
-20 -19 7 -22 60 -4 66 19 7 38 -17 38 -46z m257 26 c-18 -4 -24 -22 -7 -22 6
0 10 -6 10 -14 0 -24 -35 -12 -40 14 -7 32 18 54 39 37 12 -10 12 -12 -2 -15z
m261 -19 c0 -15 -6 -33 -14 -40 -15 -15 -28 -17 -19 -4 3 5 2 12 -3 15 -10 6
-8 48 2 64 12 20 34 -3 34 -35z m260 -9 c-2 -27 -8 -39 -18 -39 -11 0 -15 10
-14 38 1 21 -4 37 -10 38 -6 0 -2 4 9 9 28 11 37 -1 33 -46z m1037 26 c-2 -11
-7 -25 -10 -30 -3 -6 -1 -10 4 -10 6 0 11 -7 11 -15 0 -16 -9 -19 -32 -10 -16
6 -13 61 4 82 14 17 28 7 23 -17z m265 -16 c0 -23 -5 -34 -14 -34 -21 0 -31
21 -15 31 12 8 12 10 0 18 -17 11 -5 32 14 24 9 -3 15 -18 15 -39z m-2613 0
c1 -44 -19 -41 -28 4 -5 26 -3 32 10 32 13 0 17 -9 18 -36z m243 5 c0 -11 4
-18 9 -14 5 3 12 1 15 -4 4 -5 3 -12 -2 -15 -14 -8 -30 8 -38 38 -5 21 -4 27
5 22 6 -4 11 -16 11 -27z m1330 -5 c0 -29 -3 -35 -16 -30 -9 3 -19 6 -23 6 -5
0 -8 14 -9 30 -1 25 3 30 24 30 21 0 24 -5 24 -36z m240 15 c0 -12 4 -17 11
-13 14 8 8 -48 -6 -58 -19 -15 -23 -8 -22 42 0 28 4 50 9 50 4 0 8 -9 8 -21z
m274 -11 c-1 -18 -3 -39 -3 -45 -1 -7 -6 -13 -13 -13 -6 0 -8 3 -5 7 4 3 2 12
-5 20 -8 10 -8 17 0 25 6 6 8 17 5 24 -3 8 1 14 10 14 11 0 14 -9 11 -32z
m-2044 -113 c35 -35 33 -90 -4 -121 -59 -51 -151 -14 -149 60 2 85 92 121 153
61z m239 20 c98 -50 28 -203 -74 -161 -54 23 -73 86 -39 134 28 40 69 50 113
27z m268 -5 c77 -47 42 -160 -49 -160 -117 0 -114 175 2 179 8 1 30 -8 47 -19z
m262 5 c83 -42 49 -165 -46 -165 -80 0 -114 102 -52 154 35 30 58 32 98 11z
m255 5 c33 -12 59 -63 51 -101 -9 -38 -49 -69 -92 -69 -80 0 -114 102 -52 154
33 28 53 32 93 16z m265 -4 c29 -15 51 -53 51 -87 0 -35 -53 -79 -95 -79 -82
0 -117 101 -54 154 35 29 58 32 98 12z m260 -1 c83 -42 49 -165 -46 -165 -80
0 -114 102 -52 154 35 30 58 32 98 11z m538 -17 c15 -14 23 -33 23 -55 0 -46
-16 -72 -53 -88 -71 -30 -147 44 -117 114 24 60 99 75 147 29z m247 11 c15
-12 32 -31 36 -43 l9 -21 7 23 c3 12 8 22 11 22 15 0 31 -32 37 -78 l7 -52
-31 0 c-28 0 -30 2 -24 28 4 15 11 29 16 30 10 5 11 42 0 42 -14 0 -32 -24
-32 -42 0 -34 -45 -68 -89 -68 -32 0 -44 6 -65 31 -41 48 -32 104 22 133 38
21 65 19 96 -5z m274 -15 c59 -68 -13 -171 -100 -142 -53 18 -75 90 -42 136
34 48 102 51 142 6z m-774 -5 c30 -35 32 -58 11 -98 -42 -83 -165 -49 -165 46
0 80 102 114 154 52z m-1224 -35 c0 -14 7 -41 15 -61 8 -19 15 -37 15 -39 0
-2 -18 -4 -41 -4 -53 0 -96 -40 -105 -99 -4 -24 -12 -41 -20 -41 -17 0 -27 35
-20 67 5 16 3 22 -4 18 -5 -3 -10 1 -10 9 0 9 7 16 15 16 30 0 91 39 103 65 7
14 12 38 12 53 0 30 17 55 32 46 4 -3 8 -16 8 -30z m249 -7 c2 36 21 37 21 1
0 -18 4 -47 9 -64 8 -29 7 -30 -15 -26 -13 2 -31 -1 -39 -8 -23 -19 -39 -1
-19 21 9 11 18 38 19 66 3 62 6 66 15 23 5 -22 8 -27 9 -13z m1036 6 c-3 -21
-2 -31 2 -21 6 12 12 4 24 -33 l16 -50 -31 7 c-44 9 -47 13 -36 34 6 11 8 31
4 45 -4 15 -1 32 6 40 19 23 21 19 15 -22z m272 2 c-3 -20 2 -43 10 -55 8 -12
12 -27 9 -35 -2 -7 0 -16 7 -19 7 -2 4 -5 -5 -5 -10 -1 -18 4 -18 9 0 6 -11
10 -24 10 -23 0 -24 3 -19 43 7 54 20 87 33 87 6 0 9 -15 7 -35z m-2097 -22
c0 -7 5 -13 11 -13 6 0 9 -12 7 -27 -2 -21 -10 -29 -37 -36 -39 -10 -67 -39
-76 -80 -8 -34 -29 -30 -33 6 -2 15 -8 27 -13 27 -6 0 -7 5 -4 10 3 6 18 10
31 10 15 0 38 12 55 29 24 24 29 38 29 77 0 44 1 46 15 28 8 -10 15 -25 15
-31z m1066 5 c2 -21 8 -47 14 -58 10 -18 8 -20 -19 -20 -16 0 -37 -3 -46 -6
-16 -6 -16 -5 -1 24 9 17 16 35 15 39 -1 4 -1 21 0 36 2 44 33 31 37 -15z
m254 17 c0 -14 7 -41 14 -60 l15 -35 -40 0 c-44 0 -43 -1 -28 37 7 15 11 40
10 56 -1 18 4 27 14 27 9 0 15 -9 15 -25z m240 11 c0 -8 5 -18 11 -22 8 -4 9
0 4 15 -4 13 -2 21 5 21 8 0 10 -10 7 -26 -3 -15 2 -46 10 -70 14 -41 17 -43
69 -54 43 -9 53 -15 45 -24 -6 -7 -8 -16 -5 -19 3 -3 2 -12 -2 -19 -5 -7 -8
-22 -9 -33 0 -11 -8 -21 -19 -23 -16 -3 -18 1 -14 32 2 19 2 33 -1 30 -3 -2
-10 9 -17 25 -8 19 -23 33 -38 37 -14 3 -26 10 -26 15 0 5 -11 9 -25 9 -29 0
-30 2 -11 38 8 17 10 35 5 47 -11 28 -11 35 1 35 6 0 10 -6 10 -14z m-1285
-38 c11 -55 10 -63 -10 -64 -11 -1 -28 -5 -37 -9 -23 -9 -22 4 2 35 11 14 20
33 20 43 0 25 19 21 25 -5z m-228 -98 c79 -28 76 -140 -5 -171 -29 -11 -86 11
-101 39 -25 47 -4 113 43 132 28 12 29 12 63 0z m291 -24 c54 -53 14 -150 -63
-150 -73 0 -117 91 -69 145 39 44 90 46 132 5z m261 -1 c56 -54 15 -145 -64
-145 -101 0 -124 131 -30 171 29 12 66 1 94 -26z m125 27 c-23 -16 -44 -58
-44 -89 0 -26 -4 -33 -19 -33 -15 0 -19 7 -19 34 0 18 -5 43 -11 54 -16 29
-15 30 27 35 68 7 77 7 66 -1z m135 -26 c54 -54 14 -148 -64 -148 -99 0 -123
134 -30 173 28 12 66 2 94 -25z m260 -1 c55 -54 14 -147 -64 -147 -99 0 -123
134 -30 173 29 12 66 1 94 -26z m95 -10 c-8 -19 -14 -48 -14 -65 0 -43 -32
-38 -35 5 -1 17 -6 44 -10 62 -7 30 -6 32 26 35 47 5 50 2 33 -37z m155 20
c12 -12 11 -13 -9 -8 -15 4 -27 1 -35 -11 -11 -14 -13 -15 -19 -1 -13 34 -72
6 -64 -31 6 -30 34 -40 56 -20 12 10 23 13 26 8 3 -6 0 -12 -6 -15 -7 -2 1 -4
17 -4 37 -1 55 13 56 41 1 17 2 15 9 -7 26 -86 -83 -148 -147 -84 -47 46 -30
122 32 148 25 10 65 2 84 -16z m221 10 c71 -37 65 -137 -11 -164 -103 -36
-168 111 -71 163 35 19 46 19 82 1z m260 0 c71 -37 65 -137 -11 -164 -106 -37
-169 119 -66 164 41 18 42 18 77 0z m105 0 c12 -1 18 -8 16 -16 -3 -8 -7 -35
-9 -61 -3 -38 -8 -48 -22 -48 -13 0 -19 11 -23 51 -4 29 -14 61 -24 72 -18 20
-17 20 12 12 17 -4 39 -9 50 -10z m149 1 c19 -8 37 -19 41 -26 5 -8 0 -7 -14
2 -17 11 -25 11 -42 0 -15 -10 -24 -11 -32 -3 -18 18 -45 13 -57 -10 -20 -36
11 -58 76 -56 57 3 56 2 72 32 10 18 11 17 12 -13 0 -42 -24 -78 -61 -91 -106
-37 -169 119 -66 164 40 18 32 17 71 1z m132 0 c0 -1 -2 -26 -5 -56 -5 -47 -9
-55 -28 -58 -20 -3 -23 1 -23 32 0 36 -15 74 -35 88 -5 5 13 5 40 2 28 -4 50
-7 51 -8z m167 -28 c23 -25 28 -36 23 -61 -13 -63 -66 -96 -121 -73 -54 23
-73 86 -39 134 35 50 92 50 137 0z m236 28 c28 -15 51 -53 51 -86 0 -10 -12
-32 -26 -49 -44 -53 -123 -40 -150 24 -17 41 -7 73 32 104 31 25 55 26 93 7z
m-2464 -13 c-9 -87 -31 -127 -43 -82 -3 11 -2 12 6 0 7 -10 11 -4 14 23 3 24
1 33 -6 26 -17 -17 -28 -11 -21 10 4 13 2 20 -7 21 -17 1 22 17 43 18 10 1 15
-6 14 -16z m778 -35 c-23 -78 -47 -87 -55 -21 -3 21 -8 46 -12 56 -7 15 -2 17
37 17 l45 0 -15 -52z m496 43 c8 -5 10 -14 6 -22 -5 -7 -12 -26 -16 -43 l-8
-31 3 33 c2 21 -2 32 -11 32 -14 0 -18 22 -6 33 8 9 15 9 32 -2z m1054 -9 c-3
-9 -10 -22 -15 -29 -5 -6 -7 -27 -4 -45 4 -28 2 -34 -14 -35 -17 -2 -20 5 -20
47 0 28 -5 50 -12 52 -22 8 1 25 36 26 29 1 34 -2 29 -16z m-1205 -36 c4 -21
-14 -37 -35 -29 -14 5 -18 35 -6 47 12 12 38 1 41 -18z m80 0 c4 -21 -14 -37
-35 -29 -14 5 -18 35 -6 47 12 12 38 1 41 -18z m679 8 c3 -8 -1 -22 -9 -30
-19 -19 -52 3 -42 29 8 21 43 22 51 1z m80 0 c3 -8 -1 -23 -10 -31 -13 -13
-19 -14 -31 -3 -11 8 -16 9 -16 1 0 -6 -4 -11 -9 -11 -5 0 -3 14 5 30 17 33
51 41 61 14z m-2207 -119 c56 -29 66 -85 24 -134 -21 -25 -33 -31 -65 -31
-102 0 -125 138 -29 173 25 9 40 8 70 -8z m282 -17 c25 -27 29 -38 24 -68 -12
-75 -98 -106 -150 -54 -38 39 -36 93 5 128 43 36 83 34 121 -6z m255 8 c61
-53 21 -156 -61 -156 -80 0 -117 102 -55 154 38 33 79 33 116 2z m258 2 c15
-14 28 -38 32 -60 5 -32 1 -41 -25 -68 -61 -60 -151 -24 -152 62 0 72 90 113
145 66z m262 -2 c61 -53 21 -156 -61 -156 -80 0 -117 102 -55 154 38 33 79 33
116 2z m232 13 c32 -11 61 -52 61 -87 0 -26 -37 -71 -67 -83 -16 -6 -34 -4
-58 5 -37 16 -55 42 -55 81 0 47 20 69 86 95 1 0 15 -5 33 -11z m520 -15 c87
-73 -22 -205 -112 -134 -48 38 -42 116 12 145 39 21 66 18 100 -11z m269 -10
c39 -45 26 -111 -28 -139 -81 -42 -165 68 -104 136 40 45 93 47 132 3z m237
24 c29 -13 55 -55 55 -88 0 -36 -53 -80 -95 -80 -70 0 -110 80 -69 138 27 39
67 50 109 30z m264 -2 c28 -15 51 -53 51 -86 0 -10 -12 -32 -26 -49 -21 -25
-33 -31 -65 -31 -86 0 -123 100 -58 154 35 29 58 32 98 12z m-1018 -22 c55
-50 18 -143 -57 -144 -82 -1 -115 92 -52 145 35 29 76 29 109 -1z m-1451 -60
c0 -37 -3 -44 -20 -44 -11 0 -20 6 -20 13 0 6 -3 22 -6 35 -4 13 -2 22 5 22 6
0 11 -9 11 -20 0 -11 5 -20 11 -20 8 0 10 12 6 35 -3 21 -2 33 4 30 5 -4 9
-26 9 -51z m251 16 c15 0 10 -47 -5 -53 -20 -8 -26 2 -26 43 0 41 13 63 18 31
2 -12 8 -21 13 -21z m266 -11 c1 -42 -1 -50 -15 -47 -22 4 -27 44 -11 74 18
35 24 30 26 -27z m238 29 c-6 -22 -6 -22 9 -4 15 19 16 18 16 -21 0 -23 -4
-44 -8 -47 -12 -7 -29 7 -29 24 0 8 -2 20 -3 25 -5 21 0 45 11 45 6 0 8 -9 4
-22z m285 -29 c0 -15 -5 -31 -11 -34 -16 -11 -19 -1 -10 33 5 17 6 31 3 31
-17 -3 -23 2 -17 11 11 18 35 -10 35 -41z m487 43 c17 -10 12 -82 -6 -82 -7 0
-11 6 -8 15 4 8 2 17 -3 20 -6 4 -10 11 -10 16 0 6 5 7 10 4 6 -3 10 -1 10 4
0 6 -7 11 -16 11 -8 0 -12 5 -9 10 7 12 16 12 32 2z m272 -42 c0 -10 -4 -8
-10 5 -7 16 -8 13 -5 -12 4 -25 2 -31 -9 -26 -17 6 -21 53 -5 53 6 0 10 8 11
18 0 14 2 14 9 -3 5 -11 9 -27 9 -35z m259 2 c3 -40 2 -43 -20 -40 -17 2 -24
11 -26 31 -5 39 5 59 25 55 13 -2 19 -15 21 -46z m266 36 c-5 -7 -7 -27 -5
-45 2 -26 -1 -33 -16 -33 -15 0 -18 9 -19 45 -2 41 0 45 23 45 17 0 22 -4 17
-12z m252 -35 c-4 -45 -36 -62 -36 -20 0 14 -3 32 -6 41 -5 12 0 16 19 16 24
0 26 -3 23 -37z m-2278 -109 c51 -58 12 -144 -66 -144 -63 0 -106 63 -82 121
26 61 103 73 148 23z m251 10 c25 -21 31 -33 31 -65 0 -86 -100 -123 -154 -58
-41 48 -32 104 22 133 40 22 67 19 101 -10z m269 -10 c24 -28 28 -64 10 -97
-18 -34 -39 -46 -81 -47 -71 0 -112 80 -71 138 34 48 102 51 142 6z m260 0
c51 -58 12 -144 -67 -144 -32 0 -44 6 -65 31 -29 34 -32 62 -12 98 31 55 102
63 144 15z m259 4 c16 -15 23 -33 23 -60 0 -112 -154 -121 -176 -10 -6 27 -1
37 30 68 31 31 41 36 68 30 18 -3 42 -16 55 -28z m225 3 c63 -56 28 -151 -57
-151 -120 0 -113 175 7 179 10 1 32 -12 50 -28z m247 14 c81 -41 50 -165 -41
-165 -73 0 -114 79 -72 138 28 40 69 50 113 27z m268 -5 c77 -47 42 -160 -49
-160 -117 0 -114 175 2 179 8 1 30 -8 47 -19z m262 5 c83 -42 49 -165 -46
-165 -80 0 -114 102 -52 154 35 30 58 32 98 11z m260 0 c83 -42 49 -165 -46
-165 -80 0 -114 102 -52 154 35 30 58 32 98 11z m-2562 -17 c45 -50 36 -115
-19 -144 -87 -45 -173 72 -103 141 32 33 93 34 122 3z m348 -33 c-1 -14 -4
-27 -7 -31 -3 -3 0 -17 8 -32 22 -43 18 -51 -26 -49 -22 1 -40 5 -40 9 0 4 4
8 8 8 4 0 9 17 10 37 2 21 7 42 12 47 5 5 6 15 3 22 -3 9 2 14 14 14 14 0 18
-7 18 -25z m241 17 c15 -9 22 -101 9 -106 -5 -3 -2 -5 8 -5 9 -1 17 -5 17 -10
0 -5 -16 -9 -35 -8 -32 2 -34 4 -29 32 3 16 10 35 16 43 8 9 8 16 0 24 -24 24
-12 47 14 30z m260 -7 c-17 -13 -17 -15 -3 -21 10 -3 17 -10 17 -16 0 -5 -4
-7 -9 -3 -5 3 -12 1 -16 -5 -3 -5 0 -10 8 -10 7 0 20 -12 28 -27 7 -16 15 -31
17 -35 3 -6 -79 1 -87 9 -3 2 1 9 7 15 7 7 12 34 12 60 0 43 2 48 23 48 21 -1
21 -1 3 -15z m761 1 c-3 -8 -3 -17 1 -20 3 -4 7 -26 9 -50 4 -42 3 -44 -27
-51 -17 -4 -33 -5 -36 -2 -2 2 2 20 11 40 9 21 12 48 9 66 -6 27 -4 31 16 31
15 0 20 -5 17 -14z m518 -8 c-6 -17 -4 -20 9 -15 12 5 16 0 16 -23 0 -16 4
-40 10 -54 9 -25 8 -26 -31 -26 -53 0 -99 -45 -99 -96 0 -30 -3 -34 -26 -34
-25 0 -26 2 -22 44 3 25 1 49 -5 55 -8 8 -3 11 17 11 64 0 105 44 106 113 0
36 4 47 16 47 11 0 14 -6 9 -22z m276 -3 c6 15 8 10 10 -22 1 -24 2 -49 3 -55
1 -7 8 -18 16 -25 12 -9 7 -12 -27 -11 -22 0 -46 -3 -52 -6 -15 -10 -14 7 4
40 8 16 15 43 15 60 0 38 14 54 19 22 3 -22 4 -22 12 -3z m-1291 -5 c0 -28 0
-27 15 -56 19 -36 10 -51 -29 -50 -26 1 -32 4 -24 14 6 6 8 12 5 12 -3 0 1 20
8 44 8 24 11 47 8 50 -4 3 -1 6 5 6 7 0 12 -9 12 -20z m764 4 c11 -27 6 -82
-6 -87 -7 -3 -3 -6 9 -6 12 -1 24 -4 27 -9 5 -8 -70 -10 -78 -1 -3 2 1 25 9
49 7 25 14 37 14 28 1 -10 6 -18 11 -18 13 0 13 16 0 41 -6 11 -7 19 -1 19 5
0 12 -7 15 -16z m-2055 -21 c-3 -24 24 -85 46 -103 18 -15 21 -16 70 -18 22
-2 26 -5 17 -14 -7 -7 -12 -29 -12 -50 0 -31 -4 -38 -20 -38 -15 0 -20 7 -20
26 0 46 -36 92 -78 101 -20 4 -46 6 -57 5 -19 -2 -19 -2 -3 11 10 8 20 32 24
55 4 27 12 42 21 42 8 0 13 -8 12 -17z m261 1 c-9 -15 -40 -15 -40 1 0 10 8
14 23 11 12 -1 20 -7 17 -12z m7 -41 c3 -10 15 -30 25 -45 17 -24 26 -28 71
-28 35 0 47 -3 38 -9 -8 -5 -15 -18 -16 -28 -4 -54 -17 -93 -30 -93 -17 0 -20
31 -6 46 6 5 -3 26 -24 56 -27 37 -41 47 -73 53 -35 6 -39 9 -34 28 9 37 38
49 49 20z m877 -73 c24 0 25 -3 22 -39 -2 -21 -7 -48 -11 -60 -4 -14 -2 -21 7
-22 7 -1 2 -4 -12 -8 -32 -10 -33 -9 -21 22 11 27 -5 72 -38 111 -15 18 -15
18 6 7 12 -6 33 -11 47 -11z m562 -5 c-9 -13 -16 -33 -16 -43 0 -26 -45 -23
-45 4 -1 10 -4 25 -8 32 -6 8 0 12 20 12 15 0 35 5 43 10 23 15 24 12 6 -15z
m-1701 1 c105 -44 44 -202 -64 -165 -78 27 -82 132 -8 164 40 18 32 17 72 1z
m260 0 c37 -16 55 -42 55 -81 0 -90 -125 -123 -165 -44 -29 54 -14 102 38 124
40 18 32 17 72 1z m259 0 c19 -8 37 -19 41 -26 5 -8 0 -7 -14 2 -17 11 -25 10
-43 -1 -16 -10 -23 -10 -26 -2 -6 19 -51 12 -62 -10 -9 -16 -8 -24 5 -39 13
-15 29 -18 71 -16 30 2 56 5 58 7 2 2 8 13 14 24 10 18 11 17 12 -13 0 -69
-54 -112 -115 -92 -81 27 -89 132 -12 165 40 18 32 17 71 1z m117 0 c5 3 9
-13 9 -35 0 -32 -4 -41 -17 -42 -11 0 -13 -3 -5 -6 19 -8 14 -23 -8 -23 -16 0
-20 7 -20 33 0 18 -7 42 -15 53 -18 27 -10 35 22 23 14 -5 29 -7 34 -3z m182
-28 c23 -25 28 -36 23 -61 -13 -63 -66 -96 -121 -73 -54 23 -73 86 -39 134 35
50 92 50 137 0z m117 38 c0 -3 -7 -11 -15 -19 -8 -9 -15 -37 -16 -66 -2 -43
-5 -51 -22 -51 -16 0 -19 6 -15 35 2 19 0 35 -5 35 -5 0 -7 9 -4 20 3 11 0 23
-6 27 -7 5 8 11 33 14 25 3 46 7 48 7 1 1 2 0 2 -2z m119 -10 c28 -15 51 -53
51 -86 0 -10 -12 -32 -26 -49 -44 -53 -123 -40 -150 24 -17 41 -7 73 32 104
31 25 55 26 93 7z m279 -22 c41 -47 25 -115 -33 -140 -103 -43 -172 110 -72
160 40 20 75 13 105 -20z m262 1 c47 -47 20 -133 -46 -149 -53 -14 -124 57
-108 107 22 74 99 95 154 42z m263 -7 c23 -25 28 -36 23 -61 -13 -63 -66 -96
-121 -73 -54 23 -73 86 -39 134 35 50 92 50 137 0z m101 26 c4 -9 2 -13 -5 -8
-7 4 -9 0 -5 -14 4 -11 2 -23 -4 -27 -5 -3 -10 -14 -10 -25 0 -10 -6 -20 -14
-23 -18 -7 -31 64 -13 75 9 6 9 8 0 8 -25 0 -13 19 15 23 15 2 28 5 28 6 1 0
5 -6 8 -15z m154 -19 c55 -52 14 -149 -63 -149 -73 0 -117 91 -69 145 39 43
90 45 132 4z m261 0 c56 -54 15 -145 -64 -145 -100 0 -123 132 -30 171 29 12
66 1 94 -26z m111 26 c0 -5 -5 -22 -12 -38 -13 -30 -15 -39 -17 -65 0 -10 -7
-18 -15 -18 -16 0 -29 27 -20 41 3 5 -3 25 -15 44 l-20 34 42 4 c23 2 45 4 50
5 4 1 7 -2 7 -7z m146 -23 c45 -41 36 -104 -18 -138 -58 -36 -132 6 -132 74 0
81 91 120 150 64z m-1204 10 c-7 -7 -12 -20 -12 -30 0 -10 -4 -18 -10 -18 -5
0 -10 -10 -10 -21 0 -19 2 -20 17 -8 15 13 15 12 5 -7 -6 -12 -8 -24 -5 -28 3
-3 -1 -6 -10 -6 -16 0 -23 21 -32 93 -5 37 -5 37 32 37 29 0 34 -3 25 -12z
m1298 -40 c-19 -54 -45 -71 -45 -31 0 12 -4 25 -8 29 -4 4 -7 18 -7 31 0 20 5
23 39 23 l40 0 -19 -52z m-2253 6 c3 -8 -1 -22 -9 -30 -19 -19 -52 3 -42 29 8
21 43 22 51 1z m80 0 c3 -8 -1 -23 -10 -31 -13 -13 -19 -14 -31 -3 -11 8 -16
9 -16 1 0 -6 -4 -11 -9 -11 -5 0 -3 14 5 30 17 33 51 41 61 14z m-398 -130
c41 -35 43 -89 5 -128 -47 -46 -118 -30 -144 34 -23 55 23 118 87 120 12 0 35
-12 52 -26z m269 -10 c39 -45 26 -111 -28 -139 -81 -42 -165 68 -104 136 40
45 93 47 132 3z m237 24 c29 -13 55 -55 55 -88 0 -36 -53 -80 -95 -80 -70 0
-110 80 -69 138 27 39 67 50 109 30z m258 1 c62 -32 74 -94 28 -140 -60 -59
-151 -23 -151 61 0 64 68 107 123 79z m262 -1 c29 -13 55 -55 55 -88 0 -36
-53 -80 -95 -80 -70 0 -110 80 -69 138 27 39 67 50 109 30z m260 0 c29 -13 55
-55 55 -88 0 -36 -53 -80 -95 -80 -70 0 -110 80 -69 138 27 39 67 50 109 30z
m265 -3 c56 -29 66 -85 24 -134 -53 -64 -154 -28 -154 55 l0 37 20 -26 c17
-22 27 -25 68 -22 63 3 60 2 72 28 10 20 10 21 -4 4 -18 -24 -51 -18 -51 8 0
15 7 20 27 20 14 -1 24 3 22 7 -8 12 -52 10 -60 -3 -4 -8 -9 -8 -17 0 -13 13
-44 15 -51 3 -2 -4 8 -8 22 -7 35 0 39 -38 4 -43 -27 -4 -47 35 -29 57 25 31
66 37 107 16z m277 -9 c61 -53 21 -156 -61 -156 -80 0 -117 102 -55 154 38 33
79 33 116 2z m258 2 c15 -14 28 -38 32 -60 5 -32 1 -41 -25 -68 -60 -60 -152
-24 -152 60 0 74 89 116 145 68z m266 -7 c20 -20 29 -39 29 -61 0 -40 -47 -90
-85 -90 -57 0 -94 36 -95 92 0 28 7 42 31 62 41 35 83 34 120 -3z m256 5 c61
-53 21 -156 -61 -156 -80 0 -117 102 -55 154 38 33 79 33 116 2z m-2507 -42
c0 -17 -16 -19 -23 -1 -3 6 -6 -4 -7 -23 -2 -32 -3 -33 -9 -10 -5 17 -3 31 7
42 16 19 32 15 32 -8z m260 -25 c0 -30 -6 -34 -34 -23 -19 7 -22 60 -3 67 20
7 37 -13 37 -44z m260 11 c0 -33 -4 -40 -19 -40 -14 0 -20 9 -23 34 -2 19 -1
33 3 30 4 -2 10 0 14 6 13 22 25 8 25 -30z m260 -17 c0 -13 -5 -23 -12 -23 -6
0 -4 -6 7 -13 16 -13 15 -14 -14 -9 -18 2 -29 7 -25 11 11 8 11 34 0 42 -4 4
-3 16 4 29 11 21 12 21 25 3 8 -10 15 -28 15 -40z m258 12 c3 -44 -3 -55 -27
-48 -16 4 -17 10 -11 39 5 23 4 34 -4 35 -6 0 -2 4 9 8 27 11 30 8 33 -34z
m1038 -5 c3 -42 -5 -54 -28 -45 -16 6 -13 61 5 83 14 18 20 8 23 -38z m264 -1
c0 -22 -5 -29 -20 -29 -16 0 -20 7 -20 33 0 19 3 37 7 40 12 13 33 -15 33 -44z
m-2610 5 c0 -24 -4 -34 -12 -31 -7 2 -13 12 -13 23 -1 10 -4 25 -8 32 -6 8 -2
12 12 12 17 0 21 -6 21 -36z m1570 1 c0 -28 -4 -35 -20 -35 -12 0 -22 9 -26
24 -7 31 1 46 27 46 15 0 19 -7 19 -35z m244 20 c-4 -8 -1 -15 5 -15 19 0 9
-58 -10 -63 -15 -4 -18 2 -17 44 1 33 6 49 14 49 8 0 11 -6 8 -15z m271 -20
c0 -27 -4 -35 -17 -35 -14 0 -17 7 -15 35 3 49 32 49 32 0z m-2045 -110 c35
-35 33 -90 -4 -121 -59 -52 -151 -14 -148 61 3 85 90 120 152 60z m239 20 c81
-41 50 -165 -41 -165 -73 0 -114 79 -72 138 28 40 69 50 113 27z m268 -5 c77
-47 42 -160 -49 -160 -117 0 -114 175 2 179 8 1 30 -8 47 -19z m262 5 c83 -42
49 -165 -46 -165 -80 0 -114 102 -52 154 35 30 58 32 98 11z m260 0 c83 -42
49 -165 -46 -165 -80 0 -114 102 -52 154 35 30 58 32 98 11z m260 1 c29 -15
51 -53 51 -87 0 -35 -53 -79 -95 -79 -82 0 -117 101 -54 154 35 29 58 32 98
12z m260 -1 c83 -42 49 -165 -46 -165 -80 0 -114 102 -52 154 35 30 58 32 98
11z m286 -27 c29 -34 31 -57 10 -97 -29 -56 -106 -63 -145 -14 -40 51 -17 125
43 141 43 11 63 5 92 -30z m252 10 c32 -30 32 -90 -2 -123 -67 -68 -181 8
-145 96 25 59 98 73 147 27z m252 6 c17 -14 31 -32 31 -40 0 -8 5 -14 10 -14
6 0 10 -5 10 -11 0 -5 -4 -7 -10 -4 -5 3 -10 -3 -10 -15 0 -35 -44 -70 -89
-70 -32 0 -44 6 -65 31 -41 48 -32 104 22 133 40 22 67 19 101 -10z m248 6
c77 -47 42 -160 -49 -160 -93 0 -122 120 -40 164 36 20 51 20 89 -4z m-1977
-57 c1 -21 7 -49 15 -63 20 -36 20 -37 -27 -38 -62 -3 -109 -55 -104 -118 2
-26 -2 -30 -24 -32 -18 -1 -21 1 -11 7 12 8 12 12 2 25 -7 9 -11 27 -9 41 3
13 1 22 -3 19 -5 -3 -9 1 -9 9 0 7 21 20 47 28 54 17 81 53 88 116 2 21 4 39
4 41 1 1 8 2 16 2 11 0 15 -11 15 -37z m244 5 c-2 -18 -1 -24 2 -13 12 41 24
39 24 -6 0 -24 7 -55 16 -67 15 -22 15 -23 -18 -21 -18 1 -42 -2 -52 -6 -16
-7 -18 -5 -12 11 18 44 26 80 20 96 -6 19 2 38 15 38 4 0 6 -15 5 -32z m278 2
c-2 -14 4 -42 13 -63 8 -20 14 -37 13 -38 -18 -4 -75 -6 -80 -2 -5 2 -1 17 7
33 9 17 15 32 15 35 -2 55 1 66 18 63 12 -2 16 -11 14 -28z m259 13 c1 -28 6
-56 13 -84 7 -24 4 -27 -25 -33 -33 -6 -51 0 -34 12 6 4 12 30 14 57 1 28 5
53 8 58 8 13 23 7 24 -10z m269 -26 c0 -23 4 -57 10 -75 8 -29 7 -33 -6 -28
-9 3 -26 9 -38 12 -18 4 -22 11 -18 30 2 13 7 24 11 24 4 0 6 17 5 38 -2 20 0
27 2 15 3 -13 10 -23 16 -23 6 0 8 10 4 25 -4 14 -2 25 4 25 5 0 10 -19 10
-43z m248 32 c-10 -5 -18 -20 -18 -32 0 -18 2 -19 10 -7 8 12 10 12 10 -5 0
-11 7 -33 15 -49 9 -16 13 -31 11 -33 -2 -2 -20 -1 -41 3 -29 5 -35 10 -29 23
4 9 9 30 10 46 1 17 2 38 3 48 1 11 9 17 24 17 20 -1 20 -2 5 -11z m261 -16
c-1 -33 3 -53 15 -72 5 -8 4 -16 -4 -21 -8 -5 -7 -9 6 -14 32 -12 8 -15 -27
-3 -27 9 -35 17 -33 32 13 94 16 105 30 105 9 0 14 -10 13 -27z m245 14 c7 -7
16 -36 20 -65 l7 -52 -31 0 c-34 0 -37 11 -15 54 11 20 12 33 5 40 -11 11 -14
36 -4 36 3 0 11 -6 18 -13z m276 5 c0 -4 -5 -13 -11 -19 -13 -13 9 -69 37 -98
9 -9 13 -19 9 -23 -4 -4 -10 -1 -12 6 -3 7 -22 12 -45 12 -34 0 -39 3 -33 18
4 9 10 28 12 42 3 14 7 32 10 40 4 8 5 18 5 23 -1 4 5 7 13 7 8 0 15 -4 15 -8z
m-2625 -62 c-3 -6 1 -7 9 -4 12 5 16 -1 16 -20 0 -26 -34 -50 -53 -39 -25 15
-73 -74 -69 -129 1 -16 -2 -28 -8 -28 -5 0 -10 3 -11 8 0 4 -2 22 -4 41 -2 19
-6 45 -10 58 -4 19 -2 23 20 23 13 0 39 13 56 28 28 25 32 34 31 78 -1 49 -1
49 14 21 8 -15 12 -32 9 -37z m279 18 c18 -57 16 -68 -9 -78 -14 -5 -32 -7
-40 -4 -13 5 -12 10 5 34 11 15 20 35 20 44 0 19 19 22 24 4z m-227 -108 c79
-28 76 -140 -5 -171 -29 -11 -86 11 -101 39 -25 47 -4 113 43 132 28 12 29 12
63 0z m148 0 c3 -5 0 -7 -8 -4 -9 3 -14 -4 -15 -23 -2 -57 -22 -102 -22 -50 0
20 -4 25 -16 20 -13 -5 -15 -2 -9 15 4 15 2 22 -7 23 -7 0 3 7 22 14 44 17 47
17 55 5z m143 -25 c60 -57 -3 -169 -83 -149 -62 15 -90 99 -49 145 39 43 90
45 132 4z m261 0 c56 -54 15 -145 -64 -145 -75 0 -118 78 -74 133 41 53 93 57
138 12z m111 31 c0 -2 -7 -20 -15 -39 -8 -20 -15 -48 -15 -62 0 -18 -5 -25
-19 -25 -15 0 -20 7 -19 28 0 15 -5 40 -11 55 -6 16 -11 30 -11 32 0 2 17 6
38 8 20 2 40 4 45 5 4 1 7 0 7 -2z m149 -30 c54 -54 14 -148 -64 -148 -99 0
-123 134 -30 173 28 12 66 2 94 -25z m93 -36 c-12 -56 -19 -70 -34 -70 -23 0
-24 20 0 21 16 1 16 2 0 6 -13 3 -18 14 -18 38 0 19 -4 37 -10 40 -20 13 -9
24 28 28 20 2 40 4 43 5 3 1 -1 -29 -9 -68z m168 35 c54 -54 14 -147 -65 -147
-99 0 -123 134 -30 173 29 12 66 1 95 -26z m110 25 c0 -6 -9 -28 -20 -49 -10
-21 -17 -41 -13 -44 3 -4 3 -14 -1 -23 -8 -22 -26 -6 -31 27 -2 13 -6 38 -10
56 -7 30 -6 32 26 36 19 2 37 5 42 5 4 1 7 -3 7 -8z m139 -15 c12 -12 11 -13
-9 -8 -15 4 -27 1 -35 -11 -11 -14 -13 -15 -19 -1 -13 34 -72 6 -64 -31 6 -30
34 -40 56 -20 12 10 23 13 26 8 3 -6 0 -12 -6 -15 -7 -2 1 -4 17 -4 37 -1 55
13 56 41 0 20 1 20 10 -2 21 -53 -26 -116 -87 -116 -47 0 -88 41 -88 88 0 75
92 121 143 71z m221 10 c71 -37 65 -137 -11 -164 -103 -36 -168 111 -71 163
35 19 46 19 82 1z m103 -2 c18 -4 24 -9 19 -17 -8 -10 -12 -33 -16 -83 0 -13
-7 -23 -13 -23 -12 0 -18 24 -15 63 1 10 -3 15 -8 12 -6 -3 -10 -5 -10 -3 0 2
-4 18 -10 36 -8 30 -7 33 8 27 9 -3 29 -9 45 -12z m152 3 c105 -44 44 -202
-64 -165 -78 27 -82 132 -8 164 40 18 32 17 72 1z m123 -2 c10 -3 10 -9 2 -23
-5 -11 -10 -31 -10 -45 0 -36 -10 -55 -26 -49 -8 3 -14 18 -14 34 0 30 -18 79
-35 92 -9 7 53 1 83 -9z m136 2 c19 -8 37 -19 41 -26 5 -8 0 -7 -14 2 -17 11
-25 11 -42 0 -15 -10 -24 -11 -32 -3 -18 18 -45 13 -57 -10 -9 -16 -8 -24 5
-39 13 -15 29 -18 71 -16 30 2 56 5 58 7 2 2 8 13 14 24 10 18 11 17 12 -13 0
-42 -24 -78 -61 -91 -106 -37 -169 119 -66 164 40 18 32 17 71 1z m111 1 c17
-1 20 -7 16 -46 -6 -79 -50 -103 -51 -28 0 27 -16 65 -35 80 -5 5 4 6 20 2 17
-3 39 -7 50 -8z m188 -29 c24 -25 28 -36 23 -62 -15 -75 -99 -104 -151 -51
-59 58 -5 165 75 149 14 -2 38 -19 53 -36z m230 31 c62 -32 74 -94 28 -140
-50 -49 -121 -37 -147 26 -17 41 -7 73 32 104 30 24 55 26 87 10z m-1175 -22
c3 -16 0 -18 -20 -12 -20 7 -21 6 -9 -9 7 -9 9 -16 3 -16 -11 0 -22 23 -22 47
0 21 44 12 48 -10z m1052 18 c0 -4 -7 -20 -16 -36 -9 -18 -13 -41 -9 -58 5
-22 2 -27 -15 -28 -17 -2 -20 4 -20 43 0 25 -5 54 -10 65 -10 17 -7 19 30 19
22 0 40 -2 40 -5z m-1212 -49 c4 -21 -14 -37 -35 -29 -14 5 -18 35 -6 47 12
12 38 1 41 -18z m80 0 c4 -21 -14 -37 -35 -29 -14 5 -18 35 -6 47 12 12 38 1
41 -18z m679 8 c3 -8 -1 -22 -9 -30 -19 -19 -52 3 -42 29 8 21 43 22 51 1z
m80 0 c3 -8 -1 -23 -10 -31 -13 -13 -19 -14 -31 -3 -11 8 -16 9 -16 1 0 -6 -4
-11 -9 -11 -5 0 -3 14 5 30 17 33 51 41 61 14z m-2199 -124 c36 -22 37 -27 17
-53 -17 -24 -50 -18 -50 8 0 15 7 20 27 20 14 -1 24 3 22 7 -8 12 -52 9 -56
-3 -3 -9 -10 -8 -25 1 -41 26 -80 -15 -47 -51 23 -25 99 -24 126 3 24 24 28
23 28 -6 0 -14 -12 -38 -26 -55 -21 -25 -33 -31 -65 -31 -102 0 -125 138 -29
173 27 10 45 7 78 -13z m274 -10 c26 -27 30 -36 25 -68 -13 -77 -98 -108 -151
-56 -38 39 -36 93 5 128 42 36 82 34 121 -4z m253 8 c15 -14 28 -38 32 -60 5
-32 1 -41 -25 -68 -60 -60 -152 -24 -152 60 0 74 89 116 145 68z m260 0 c15
-14 28 -38 32 -60 5 -32 1 -41 -25 -68 -61 -60 -151 -24 -152 62 0 72 90 113
145 66z m262 -2 c61 -53 21 -156 -61 -156 -80 0 -117 102 -55 154 38 33 79 33
116 2z m232 13 c32 -11 61 -52 61 -87 0 -26 -37 -71 -67 -83 -16 -6 -34 -4
-58 5 -37 16 -55 42 -55 81 0 47 20 69 86 95 1 0 15 -5 33 -11z m520 -15 c41
-35 43 -89 5 -128 -71 -70 -185 15 -139 103 28 55 86 66 134 25z m269 -10 c41
-47 25 -115 -33 -140 -58 -24 -119 17 -119 81 0 83 97 120 152 59z m241 21
c83 -42 49 -165 -46 -165 -68 0 -107 81 -67 138 28 40 69 50 113 27z m254 4
c59 -31 73 -89 31 -138 -21 -25 -33 -31 -65 -31 -86 0 -123 100 -58 154 33 28
58 32 92 15z m-1012 -25 c37 -34 32 -99 -10 -131 -27 -21 -79 -15 -106 12 -76
75 37 191 116 119z m-1616 -29 c0 -22 -31 -33 -47 -17 -17 17 -1 44 24 40 15
-2 23 -10 23 -23z m164 -36 c-2 -47 -3 -49 -23 -35 -22 14 -30 75 -12 88 23
16 37 -5 35 -53z m251 51 c0 -5 -4 -10 -10 -10 -5 0 -10 -4 -10 -10 0 -5 7
-10 15 -10 19 0 20 -34 1 -49 -17 -14 -26 5 -26 55 0 24 5 34 15 34 8 0 15 -4
15 -10z m266 -45 c3 -44 -1 -50 -28 -40 -16 7 -12 61 6 81 15 17 19 11 22 -41z
m524 4 c0 -19 -5 -29 -15 -29 -11 0 -14 7 -11 25 3 13 0 27 -5 31 -5 3 -7 10
-3 15 10 17 34 -12 34 -42z m487 43 c7 -4 10 -16 8 -27 -2 -11 -4 -26 -4 -32
-1 -20 -18 -15 -24 7 -3 11 -1 20 4 20 5 0 9 5 9 10 0 6 -7 10 -16 10 -8 0
-12 5 -9 10 7 12 16 12 32 2z m268 -53 c-9 -28 -35 -23 -35 6 0 14 5 25 10 25
6 0 9 3 9 8 -4 22 4 24 12 3 5 -13 7 -32 4 -42z m263 21 c2 -33 -11 -70 -22
-59 -3 2 -1 21 3 42 7 29 6 37 -5 37 -10 0 -12 -8 -7 -30 3 -19 1 -30 -6 -30
-12 0 -15 62 -4 74 17 17 38 -1 41 -34z m265 28 c-4 -7 -8 -20 -9 -28 -1 -8
-2 -25 -3 -37 0 -15 -7 -23 -18 -22 -12 0 -13 2 -5 6 10 4 10 8 1 20 -10 11
-10 19 -1 34 7 11 8 19 2 19 -5 0 -10 5 -10 10 0 6 12 10 26 10 18 0 23 -4 17
-12z m253 -46 c1 -36 -2 -42 -20 -42 -21 0 -23 12 -17 83 1 5 9 7 18 5 13 -2
18 -14 19 -46z m-1796 6 c0 -25 -16 -56 -24 -47 -11 11 -14 58 -3 63 22 9 27
6 27 -16z m-735 -110 c29 -34 31 -57 10 -97 -29 -56 -106 -63 -145 -14 -40 51
-17 125 43 141 43 11 63 5 92 -30z m252 10 c32 -30 32 -90 -2 -123 -67 -68
-181 8 -145 96 25 59 98 73 147 27z m252 6 c17 -14 31 -34 31 -45 0 -11 7 -19
18 -20 16 -1 16 -2 0 -6 -10 -2 -18 -11 -18 -19 0 -30 -47 -64 -89 -64 -32 0
-44 6 -65 31 -41 48 -32 104 22 133 40 22 67 19 101 -10z m248 6 c77 -47 42
-160 -49 -160 -117 0 -114 175 2 179 8 1 30 -8 47 -19z m281 -16 c51 -58 12
-144 -67 -144 -32 0 -44 6 -65 31 -29 34 -32 62 -12 98 31 55 102 63 144 15z
m259 4 c16 -15 23 -33 23 -60 0 -112 -154 -121 -176 -10 -6 27 -1 37 30 68 31
31 41 36 68 30 18 -3 42 -16 55 -28z m225 3 c63 -56 28 -151 -57 -151 -120 0
-113 175 7 179 10 1 32 -12 50 -28z m247 14 c81 -41 50 -165 -41 -165 -73 0
-114 79 -72 138 28 40 69 50 113 27z m261 0 c56 -29 66 -85 24 -134 -71 -85
-202 16 -138 107 28 41 69 50 114 27z m269 0 c83 -42 49 -165 -46 -165 -80 0
-114 102 -52 154 35 30 58 32 98 11z m260 0 c83 -42 49 -165 -46 -165 -80 0
-114 102 -52 154 35 30 58 32 98 11z m-2214 -48 c-1 -13 -5 -29 -10 -37 -5 -9
-4 -15 3 -18 18 -6 14 -30 -5 -35 -14 -4 -13 -5 4 -6 12 0 24 -5 28 -10 3 -6
-16 -9 -45 -9 -29 1 -45 5 -38 9 7 5 13 17 14 27 1 11 5 32 9 48 5 16 7 35 6
42 -1 6 6 12 16 12 13 0 18 -7 18 -23z m241 15 c14 -9 25 -102 12 -102 -5 0
-6 -5 -3 -10 4 -6 11 -8 16 -5 5 4 9 2 9 -3 0 -6 -16 -10 -35 -9 -19 1 -35 5
-35 9 0 4 5 8 11 8 8 0 8 4 0 14 -9 11 -8 18 5 31 14 14 15 21 6 36 -20 32
-13 49 14 31z m259 -12 c-17 -19 -17 -20 1 -21 18 0 18 -1 -1 -9 -17 -7 -17
-9 -2 -9 10 -1 17 -9 17 -20 0 -10 7 -24 15 -31 22 -19 11 -26 -34 -22 -40 4
-52 14 -31 27 6 3 10 28 10 56 0 44 2 49 22 49 20 0 21 -1 3 -20z m762 5 c-4
-8 -2 -17 2 -20 5 -3 7 -14 4 -24 -3 -10 0 -22 5 -25 6 -3 8 -15 5 -26 -4 -14
-14 -20 -34 -20 -31 0 -69 -26 -69 -47 0 -7 -4 -13 -10 -13 -5 0 -7 -7 -4 -15
5 -11 -1 -15 -20 -15 -28 0 -33 9 -14 28 9 9 8 12 -5 12 -9 0 -17 5 -17 10 0
6 13 10 29 10 33 0 91 48 91 75 0 9 4 14 9 10 5 -3 13 0 17 6 4 7 3 9 -3 6
-12 -8 -27 38 -18 53 10 16 38 12 32 -5z m518 -5 c-5 -14 -2 -20 9 -20 12 0
16 -10 16 -34 0 -19 5 -38 10 -41 15 -10 12 -28 -4 -22 -23 9 -81 -11 -102
-35 -11 -13 -20 -36 -22 -53 -3 -35 -15 -50 -35 -42 -18 7 -28 64 -13 72 7 3
7 7 -1 11 -26 12 -12 22 38 28 28 4 49 10 46 13 -3 3 3 14 14 26 17 18 25 63
20 105 -1 6 5 12 14 12 12 0 15 -6 10 -20z m285 -7 c0 -7 -6 -13 -12 -13 -9 0
-8 -3 2 -10 8 -5 11 -12 7 -16 -4 -4 -2 -13 5 -21 6 -7 8 -16 5 -20 -4 -3 1
-12 10 -18 15 -11 9 -13 -35 -16 -37 -3 -52 0 -52 9 0 6 8 12 18 13 10 0 12 3
5 6 -9 3 -10 10 -4 21 5 9 8 28 7 42 -1 14 2 28 7 31 14 10 37 6 37 -8z
m-2324 -44 c1 -16 9 -38 19 -49 18 -20 17 -20 -11 -20 -44 0 -53 11 -51 61 2
40 4 45 22 41 14 -2 20 -12 21 -33z m1029 10 c-4 -10 -2 -19 3 -19 12 0 22
-35 13 -49 -9 -14 -55 0 -59 18 -1 7 3 19 9 27 7 8 9 17 6 21 -10 9 13 34 25
27 5 -3 6 -14 3 -25z m-1299 5 c-4 -9 0 -22 7 -28 7 -6 19 -24 25 -39 l12 -29
-32 8 c-18 4 -44 7 -58 6 -20 -1 -22 0 -9 8 17 10 34 54 30 78 -1 6 6 12 15
12 11 0 14 -5 10 -16z m2066 -15 c3 -16 1 -32 -4 -35 -5 -3 -1 -12 9 -20 17
-12 16 -13 -12 -14 -46 0 -58 12 -44 43 7 15 17 23 25 20 8 -3 14 0 14 6 0 6
-7 11 -15 11 -22 0 -18 15 4 17 14 1 20 -6 23 -28z m-1437 -96 c26 -5 44 -24
27 -30 -6 -3 -10 -9 -6 -14 3 -5 -2 -12 -10 -15 -9 -3 -16 -11 -16 -16 0 -6 7
-7 16 -4 10 4 14 1 12 -6 -3 -7 -14 -14 -26 -16 -19 -3 -22 1 -22 32 0 19 -5
38 -11 41 -6 4 -8 13 -5 21 3 8 -1 14 -9 14 -8 0 -15 5 -15 10 0 7 8 6 23 -2
12 -6 31 -13 42 -15z m-620 3 c105 -44 44 -202 -64 -165 -78 27 -82 132 -8
164 40 18 32 17 72 1z m260 0 c37 -16 55 -42 55 -81 0 -89 -125 -122 -165 -44
-29 54 -14 102 38 124 40 18 32 17 72 1z m140 -7 c5 -6 3 -9 -6 -9 -11 0 -16
-11 -17 -41 -2 -45 -18 -83 -33 -74 -13 9 -11 43 4 48 9 3 8 9 -3 23 -16 20
-40 61 -40 68 0 7 85 -6 95 -15z m142 -5 c23 -15 22 -44 -4 -65 -11 -10 -17
-9 -30 4 -23 22 -9 51 22 45 13 -3 22 -1 19 3 -8 13 -38 11 -52 -3 -9 -9 -15
-9 -24 0 -18 18 -46 14 -58 -9 -9 -16 -8 -25 6 -40 21 -23 37 -24 54 -4 11 13
14 13 27 0 22 -23 40 -17 61 20 10 18 11 16 11 -15 1 -64 -56 -109 -114 -90
-81 27 -89 132 -12 165 34 15 58 12 94 -11z m276 -16 c23 -25 28 -36 23 -61
-13 -63 -66 -96 -121 -73 -54 23 -73 86 -39 134 35 50 92 50 137 0z m236 28
c28 -15 51 -53 51 -86 0 -10 -12 -32 -26 -49 -44 -53 -123 -40 -150 24 -17 41
-7 73 32 104 31 25 55 26 93 7z m110 -2 c2 -2 -2 -11 -9 -19 -7 -9 -9 -15 -4
-13 5 2 10 -1 11 -7 0 -5 -3 -9 -8 -8 -4 2 -6 -4 -3 -12 9 -22 -3 -62 -20 -68
-11 -5 -13 0 -6 24 7 24 4 40 -14 74 l-24 43 37 -5 c20 -3 38 -7 40 -9z m169
-20 c41 -47 25 -115 -33 -140 -103 -43 -172 110 -72 160 40 20 75 13 105 -20z
m262 1 c68 -67 -15 -184 -100 -140 -56 29 -70 93 -31 139 36 42 88 42 131 1z
m263 -7 c23 -25 28 -36 23 -61 -13 -63 -66 -96 -121 -73 -54 23 -73 86 -39
134 35 50 92 50 137 0z m107 21 c0 -6 -5 -7 -12 -3 -8 5 -9 0 -6 -14 4 -12 2
-25 -3 -28 -5 -3 -9 -13 -9 -24 0 -10 -7 -20 -15 -24 -9 -3 -15 0 -15 9 0 8 5
15 10 15 6 0 10 5 10 10 0 6 -6 10 -13 10 -8 0 -14 12 -14 29 0 25 5 31 26 33
30 4 41 1 41 -13z m148 -13 c26 -25 33 -86 12 -111 -22 -27 -68 -46 -94 -39
-62 15 -92 99 -50 145 39 43 90 45 132 5z m261 -1 c56 -54 15 -145 -64 -145
-101 0 -124 131 -30 171 29 12 66 1 94 -26z m260 1 c53 -53 14 -147 -63 -149
-74 -2 -119 90 -70 144 40 44 90 46 133 5z m106 7 c-5 -10 -9 -20 -10 -23 -1
-3 -4 -12 -7 -20 -4 -8 -9 -23 -12 -33 -8 -23 -31 -17 -32 9 -1 10 -2 22 -4
27 -1 4 -3 11 -4 16 0 5 -4 13 -8 17 -16 16 -6 23 35 26 51 4 51 3 42 -19z
m-2605 5 c0 -4 -4 -8 -8 -8 -4 0 -8 -15 -9 -34 -1 -41 -9 -56 -29 -56 -8 0
-14 10 -14 23 0 12 -7 35 -15 51 -8 15 -15 30 -15 32 0 2 20 3 45 2 25 -1 45
-6 45 -10z m790 2 c0 -5 -4 -10 -10 -10 -5 0 -10 -23 -10 -50 0 -36 -4 -52
-15 -57 -22 -8 -25 -3 -27 55 -1 29 -6 52 -10 52 -4 0 -8 5 -8 10 0 6 18 10
40 10 22 0 40 -4 40 -10z m510 0 c0 -5 -4 -10 -10 -10 -5 0 -10 -9 -10 -20 0
-11 -4 -20 -10 -20 -14 0 -12 -37 3 -43 9 -4 8 -8 -3 -16 -22 -15 -34 13 -26
60 4 24 2 39 -4 39 -5 0 -10 5 -10 10 0 6 16 10 35 10 19 0 35 -4 35 -10z
m1039 -30 c-10 -21 -19 -48 -19 -60 0 -13 -7 -20 -18 -20 -15 0 -19 9 -20 42
-1 23 -9 50 -19 60 -15 17 -14 18 40 18 l55 0 -19 -40z m-2002 -6 c3 -8 -1
-22 -9 -30 -19 -19 -52 3 -42 29 8 21 43 22 51 1z m-318 -130 c41 -35 43 -89
5 -128 -47 -46 -118 -30 -144 34 -23 55 23 118 87 120 12 0 35 -12 52 -26z
m269 -10 c39 -45 26 -111 -28 -139 -81 -42 -165 68 -104 136 40 45 93 47 132
3z m237 24 c29 -13 55 -55 55 -88 0 -36 -53 -80 -95 -80 -70 0 -110 80 -69
138 27 39 67 50 109 30z m258 1 c62 -32 74 -94 28 -140 -60 -60 -151 -24 -151
60 0 32 6 44 31 65 33 28 58 32 92 15z m262 -1 c29 -13 55 -55 55 -87 0 -11
-12 -33 -26 -50 -72 -86 -202 16 -138 107 27 39 67 50 109 30z m260 0 c29 -13
55 -55 55 -88 0 -36 -53 -80 -95 -80 -70 0 -110 80 -69 138 27 39 67 50 109
30z m265 -3 c56 -29 66 -85 24 -134 -21 -25 -33 -31 -65 -31 -102 0 -125 138
-29 173 25 9 40 8 70 -8z m277 -9 c61 -53 21 -156 -61 -156 -80 0 -117 102
-55 154 38 33 79 33 116 2z m260 0 c61 -53 21 -156 -61 -156 -80 0 -117 102
-55 154 38 33 79 33 116 2z m264 -5 c20 -20 29 -39 29 -61 0 -40 -47 -90 -85
-90 -57 0 -94 36 -95 92 0 28 7 42 31 62 41 35 83 34 120 -3z m263 -1 c32 -31
28 -96 -7 -126 -60 -52 -147 -12 -147 66 0 53 48 95 99 86 19 -3 44 -15 55
-26z m-2254 -57 c0 -29 -20 -45 -36 -28 -17 17 -18 47 -3 62 15 15 39 -7 39
-34z m264 32 c3 -9 0 -15 -9 -15 -8 0 -15 -4 -15 -10 0 -5 5 -10 10 -10 6 0
10 -7 10 -15 0 -30 -34 -12 -42 23 -4 15 -2 22 8 22 8 0 14 5 14 10 0 15 17
12 24 -5z m239 8 c3 -5 8 -23 12 -41 6 -31 5 -33 -17 -30 -19 2 -23 9 -22 33
3 44 3 45 13 45 6 0 12 -3 14 -7z m277 -49 c0 -36 -6 -45 -26 -37 -17 6 -18
59 -1 77 16 18 27 2 27 -40z m1036 31 c1 -8 -2 -18 -7 -21 -6 -3 -5 -11 2 -20
15 -18 -1 -37 -23 -29 -10 4 -13 16 -10 38 7 51 32 72 38 32z m-2350 -17 c-2
-45 -24 -48 -23 -4 1 21 6 36 13 36 7 0 11 -13 10 -32z m273 11 c4 -12 2 -12
-12 0 -15 12 -17 11 -17 -8 0 -11 3 -20 8 -18 4 1 8 -2 10 -7 1 -6 -4 -11 -12
-12 -17 -2 -28 53 -12 60 17 7 29 1 35 -15z m1301 -15 c0 -31 -3 -35 -22 -32
-12 2 -24 9 -26 17 -3 10 0 12 12 8 10 -4 16 -1 16 9 0 8 -4 13 -9 9 -5 -3
-12 -1 -15 4 -4 5 4 12 16 14 13 2 24 5 26 6 1 0 2 -15 2 -35z m240 22 c0 -8
5 -16 11 -18 8 -3 9 -15 4 -36 -4 -18 -12 -31 -18 -29 -18 6 -21 38 -5 49 10
7 10 11 1 15 -15 6 -17 33 -3 33 6 0 10 -6 10 -14z m270 -11 c-8 -9 -8 -15 0
-20 13 -8 3 -25 -16 -25 -17 0 -19 41 -2 58 15 15 32 4 18 -13z m514 19 c18
-7 22 -49 5 -60 -6 -3 -16 -1 -22 5 -9 9 -8 14 3 21 10 7 11 10 3 10 -7 0 -13
7 -13 15 0 17 2 18 24 9z m-2554 -139 c35 -35 33 -90 -4 -121 -59 -52 -151
-14 -148 61 3 85 90 120 152 60z m239 20 c81 -41 50 -165 -41 -165 -73 0 -114
79 -72 138 28 40 69 50 113 27z m261 0 c56 -29 66 -85 24 -134 -71 -85 -202
16 -138 107 28 41 69 50 114 27z m269 0 c83 -42 49 -165 -46 -165 -80 0 -114
102 -52 154 35 30 58 32 98 11z m260 0 c83 -42 49 -165 -46 -165 -80 0 -114
102 -52 154 35 30 58 32 98 11z m260 1 c29 -15 51 -53 51 -87 0 -35 -53 -79
-95 -79 -82 0 -117 101 -54 154 35 29 58 32 98 12z m260 -1 c83 -42 49 -165
-46 -165 -80 0 -114 102 -52 154 35 30 58 32 98 11z m539 -21 c51 -58 12 -144
-66 -144 -63 0 -106 63 -82 121 26 61 103 73 148 23z m251 10 c25 -21 31 -33
31 -65 0 -86 -100 -123 -154 -58 -41 48 -32 104 22 133 40 22 67 19 101 -10z
m248 6 c77 -47 42 -160 -49 -160 -93 0 -122 120 -40 164 36 20 51 20 89 -4z
m-753 -21 c30 -35 32 -58 11 -98 -42 -83 -165 -49 -165 46 0 80 102 114 154
52z m-975 -42 c2 42 19 32 24 -15 2 -26 7 -54 11 -62 4 -11 -1 -15 -19 -16
-14 -1 -36 -5 -49 -8 l-24 -6 20 41 c12 25 17 51 13 66 -3 13 -2 29 2 36 5 7
10 -1 14 -23 4 -20 7 -26 8 -13z m275 19 c-2 -13 3 -42 11 -65 14 -41 14 -41
-10 -41 -34 0 -38 -1 -58 -12 -18 -9 -18 -8 -1 17 14 22 20 47 26 113 1 6 9
12 19 12 13 0 17 -6 13 -24z m254 -6 c1 -16 7 -41 12 -55 15 -39 13 -45 -19
-45 -35 0 -48 15 -30 36 7 8 12 33 11 54 -2 48 22 57 26 10z m781 3 c-7 -18
-7 -29 0 -31 5 -2 8 -9 5 -17 -3 -7 0 -16 6 -20 6 -4 8 -15 5 -25 -4 -12 0
-20 12 -23 16 -4 16 -5 1 -6 -9 0 -20 4 -23 9 -3 6 -16 10 -28 10 -20 0 -22 4
-18 48 2 26 7 52 12 59 7 7 5 13 -3 16 -7 3 -1 6 14 6 26 1 27 -1 17 -26z
m249 5 c6 -13 12 -34 15 -48 2 -14 6 -32 8 -40 3 -10 -5 -16 -26 -18 -29 -3
-30 -2 -29 40 3 82 4 88 12 88 5 0 14 -10 20 -22z m272 7 c0 -8 -4 -15 -10
-15 -16 0 -12 -18 15 -60 14 -22 25 -41 25 -42 0 -2 -21 -2 -46 0 -38 4 -44 7
-38 21 4 9 9 33 12 54 2 20 8 37 14 37 5 0 6 5 3 10 -3 6 1 10 9 10 9 0 16 -7
16 -15z m-2342 -39 c0 -19 3 -43 7 -55 5 -17 2 -21 -17 -21 -13 0 -29 4 -37 9
-11 7 -11 13 3 32 9 13 16 31 16 40 0 10 6 20 13 22 6 3 13 6 14 6 0 1 1 -14
1 -33z m1312 17 c0 -8 -5 -11 -12 -7 -7 5 -8 3 -2 -7 5 -8 9 -16 10 -19 1 -3
5 -20 9 -37 4 -18 12 -33 18 -33 6 0 8 -2 5 -5 -3 -3 -24 0 -47 7 -34 11 -40
16 -35 33 4 11 10 24 14 29 5 5 5 19 0 31 -7 20 -5 23 16 23 14 0 24 -6 24
-15z m233 -5 c-4 -19 -3 -20 6 -8 9 13 11 12 11 -5 0 -12 9 -38 19 -59 16 -31
17 -37 4 -32 -8 3 -25 9 -38 12 -21 5 -23 11 -22 60 1 35 5 54 13 54 7 0 10
-9 7 -22z m-361 -127 c-8 -4 -13 -11 -13 -15 3 -23 0 -30 -9 -16 -7 11 -10 11
-10 2 0 -7 -4 -11 -9 -7 -6 3 -9 14 -8 25 1 15 8 20 32 20 20 0 26 -3 17 -9z
m-164 -45 c4 -21 -14 -37 -35 -29 -14 5 -18 35 -6 47 12 12 38 1 41 -18z m80
0 c4 -21 -14 -37 -35 -29 -14 5 -18 35 -6 47 12 12 38 1 41 -18z m759 8 c3 -8
-1 -23 -10 -31 -13 -13 -19 -14 -31 -3 -11 8 -16 9 -16 1 0 -6 -4 -11 -9 -11
-5 0 -3 14 5 30 17 33 51 41 61 14z"/>
<path d="M488 2783 c17 -2 47 -2 65 0 17 2 3 4 -33 4 -36 0 -50 -2 -32 -4z"/>
<path d="M1268 2783 c17 -2 47 -2 65 0 17 2 3 4 -33 4 -36 0 -50 -2 -32 -4z"/>
<path d="M1530 2831 c0 -6 -7 -8 -15 -5 -17 7 -21 -11 -4 -22 6 -3 18 0 26 9
10 10 11 17 4 21 -6 4 -11 3 -11 -3z"/>
<path d="M1580 2828 c0 -26 20 -32 38 -13 16 16 16 17 1 12 -9 -3 -22 0 -28 6
-8 8 -11 7 -11 -5z"/>
<path d="M1538 2783 c18 -2 45 -2 60 0 15 2 0 4 -33 4 -33 0 -45 -2 -27 -4z"/>
<path d="M2004 2783 c7 -7 108 -5 115 3 2 2 -24 4 -59 4 -35 0 -60 -3 -56 -7z"/>
<path d="M2288 2783 c17 -2 47 -2 65 0 17 2 3 4 -33 4 -36 0 -50 -2 -32 -4z"/>
<path d="M2547 2783 c18 -2 50 -2 70 0 21 2 7 4 -32 4 -38 0 -55 -2 -38 -4z"/>
<path d="M878 2593 c18 -2 45 -2 60 0 15 2 0 4 -33 4 -33 0 -45 -2 -27 -4z"/>
<path d="M1373 2643 c-7 -3 -13 -9 -13 -15 0 -6 6 -8 14 -5 8 3 17 1 19 -6 2
-7 8 -9 13 -4 11 10 -18 36 -33 30z"/>
<path d="M1634 2593 c7 -7 97 -5 105 3 2 2 -22 4 -54 4 -32 0 -55 -3 -51 -7z"/>
<path d="M1967 2643 c-8 -14 18 -37 33 -28 15 9 12 28 -4 22 -8 -3 -16 -1 -19
6 -2 8 -5 8 -10 0z"/>
<path d="M2178 2593 c18 -2 45 -2 60 0 15 2 0 4 -33 4 -33 0 -45 -2 -27 -4z"/>
<path d="M2430 2647 c0 -11 -6 -15 -17 -11 -15 5 -15 3 1 -10 31 -25 49 -21
35 7 -16 31 -19 33 -19 14z"/>
<path d="M2482 2636 c-12 -26 -11 -27 10 -21 13 4 28 12 33 18 7 7 5 8 -7 4
-11 -4 -18 0 -20 10 -2 12 -7 9 -16 -11z"/>
<path d="M723 2483 c-21 -8 -15 -22 7 -16 11 3 20 0 20 -6 0 -6 5 -11 10 -11
7 0 7 6 0 20 -11 20 -16 22 -37 13z"/>
<path d="M802 2478 c-17 -17 -15 -33 2 -19 7 6 22 8 32 4 17 -6 17 -5 5 10
-16 20 -23 21 -39 5z"/>
<path d="M1000 2493 c0 -7 -8 -13 -17 -13 -14 -1 -12 -4 7 -15 29 -16 40 -18
40 -7 0 14 -29 48 -30 35z"/>
<path d="M1057 2487 c-4 -10 -7 -22 -7 -27 0 -11 39 0 47 13 4 6 0 8 -10 4
-10 -4 -17 0 -19 11 -3 15 -4 15 -11 -1z"/>
<path d="M1752 2498 c-17 -17 -15 -32 6 -50 23 -20 63 -21 55 -2 -7 18 4 18
23 -1 18 -18 48 -6 58 22 6 17 5 17 -8 0 -18 -24 -51 -18 -51 8 0 15 7 20 27
20 14 -1 24 3 22 7 -7 12 -48 10 -61 -3 -8 -8 -13 -8 -17 0 -9 15 -39 14 -54
-1z m53 -23 c0 -22 -31 -33 -47 -17 -17 17 -1 44 24 40 15 -2 23 -10 23 -23z"/>
<path d="M2035 2439 c-23 -5 -17 -7 29 -8 60 -1 72 4 26 12 -14 2 -38 0 -55
-4z"/>
<path d="M2625 2486 c-17 -13 -18 -17 -5 -25 18 -12 33 1 28 23 -3 15 -5 16
-23 2z"/>
<path d="M348 2273 c17 -2 47 -2 65 0 17 2 3 4 -33 4 -36 0 -50 -2 -32 -4z"/>
<path d="M878 2273 c18 -2 45 -2 60 0 15 2 0 4 -33 4 -33 0 -45 -2 -27 -4z"/>
<path d="M2178 2273 c18 -2 45 -2 60 0 15 2 0 4 -33 4 -33 0 -45 -2 -27 -4z"/>
<path d="M2480 2305 c-17 -20 9 -21 36 0 19 14 19 14 -2 15 -12 0 -27 -7 -34
-15z"/>
<path d="M287 2133 c-8 -14 18 -37 33 -28 15 9 12 28 -4 22 -8 -3 -16 -1 -19
6 -2 8 -5 8 -10 0z"/>
<path d="M220 2081 c0 -8 90 -3 99 5 2 2 -19 4 -47 4 -29 0 -52 -4 -52 -9z"/>
<path d="M545 2124 c-19 -19 -12 -32 8 -15 8 6 22 9 31 5 22 -9 20 3 -3 16
-15 7 -24 6 -36 -6z"/>
<path d="M750 2137 c0 -11 -6 -15 -17 -11 -15 5 -15 3 1 -10 31 -25 49 -21 35
7 -16 31 -19 33 -19 14z"/>
<path d="M803 2127 c-15 -32 1 -37 33 -11 15 13 16 15 2 10 -10 -3 -18 1 -20
11 -2 12 -6 9 -15 -10z"/>
<path d="M1252 2114 c9 -9 21 -13 27 -10 20 13 11 26 -16 26 -25 0 -26 -1 -11
-16z"/>
<path d="M1320 2121 c0 -19 22 -23 38 -7 15 15 14 16 -11 16 -15 0 -27 -4 -27
-9z"/>
<path d="M72 1988 c-33 -33 8 -70 73 -66 38 2 51 8 62 28 14 23 14 23 0 7 -20
-24 -52 -18 -52 8 0 15 7 20 27 20 14 -1 24 3 22 7 -8 13 -52 9 -57 -4 -4 -10
-7 -10 -18 0 -17 15 -41 16 -57 0z m53 -23 c0 -22 -31 -33 -47 -17 -17 17 -1
44 24 40 15 -2 23 -10 23 -23z"/>
<path d="M945 1974 c-17 -13 -18 -16 -5 -24 18 -11 33 2 28 23 -3 14 -5 14
-23 1z"/>
<path d="M1158 1923 c18 -2 45 -2 60 0 15 2 0 4 -33 4 -33 0 -45 -2 -27 -4z"/>
<path d="M2403 1973 c-21 -8 -15 -22 7 -16 11 3 20 0 20 -6 0 -6 5 -11 10 -11
7 0 7 6 0 20 -11 20 -16 22 -37 13z"/>
<path d="M2482 1968 c-17 -17 -15 -33 2 -19 7 6 22 8 32 4 17 -6 17 -5 5 10
-16 20 -23 21 -39 5z"/>
<path d="M2680 1981 c0 -6 -8 -11 -17 -11 -14 -1 -12 -4 7 -15 34 -19 39 -18
33 5 -6 22 -23 38 -23 21z"/>
<path d="M2737 1977 c-15 -40 -4 -48 29 -21 15 13 16 15 2 10 -11 -3 -18 1
-20 12 -3 15 -4 15 -11 -1z"/>
<path d="M1645 1961 c-12 -11 -3 -50 15 -66 16 -15 22 -16 35 -5 46 38 40 78
-11 77 -19 -1 -37 -3 -39 -6z"/>
<path d="M1244 1762 c5 -9 105 -7 114 2 3 3 -23 6 -57 6 -34 0 -60 -4 -57 -8z"/>
<path d="M1530 1810 c0 -5 -7 -7 -15 -4 -8 4 -15 1 -15 -4 0 -18 20 -24 35
-12 17 14 20 30 5 30 -5 0 -10 -4 -10 -10z"/>
<path d="M1580 1808 c0 -26 20 -32 38 -13 16 16 16 17 1 12 -9 -3 -22 0 -28 6
-8 8 -11 7 -11 -5z"/>
<path d="M2003 1764 c3 -4 29 -7 57 -7 28 0 54 3 57 7 3 3 -22 6 -57 6 -35 0
-60 -3 -57 -6z"/>
<path d="M2288 1763 c18 -2 45 -2 60 0 15 2 0 4 -33 4 -33 0 -45 -2 -27 -4z"/>
<path d="M2558 1763 c17 -2 47 -2 65 0 17 2 3 4 -33 4 -36 0 -50 -2 -32 -4z"/>
<path d="M878 1573 c18 -2 45 -2 60 0 15 2 0 4 -33 4 -33 0 -45 -2 -27 -4z"/>
<path d="M1373 1623 c-7 -3 -13 -9 -13 -15 0 -6 6 -8 14 -5 8 3 17 1 19 -6 2
-7 8 -9 13 -4 11 10 -18 36 -33 30z"/>
<path d="M1658 1573 c18 -2 45 -2 60 0 15 2 0 4 -33 4 -33 0 -45 -2 -27 -4z"/>
<path d="M1967 1623 c-8 -14 18 -37 33 -28 15 9 12 28 -4 22 -8 -3 -16 -1 -19
6 -2 8 -5 8 -10 0z"/>
<path d="M2178 1573 c18 -2 45 -2 60 0 15 2 0 4 -33 4 -33 0 -45 -2 -27 -4z"/>
<path d="M2430 1627 c0 -11 -6 -15 -17 -11 -15 5 -15 3 1 -10 31 -25 49 -21
35 7 -16 31 -19 33 -19 14z"/>
<path d="M2483 1617 c-15 -32 1 -37 33 -11 15 13 16 15 2 10 -10 -3 -18 1 -20
11 -2 12 -6 9 -15 -10z"/>
<path d="M723 1463 c-21 -8 -15 -22 7 -16 11 3 20 0 20 -6 0 -6 5 -11 10 -11
7 0 7 6 0 20 -11 20 -16 22 -37 13z"/>
<path d="M802 1458 c-17 -17 -15 -33 2 -19 7 6 22 8 32 4 17 -6 17 -5 5 10
-16 20 -23 21 -39 5z"/>
<path d="M748 1413 c17 -2 47 -2 65 0 17 2 3 4 -33 4 -36 0 -50 -2 -32 -4z"/>
<path d="M1000 1473 c0 -7 -8 -13 -17 -13 -14 -1 -12 -4 7 -15 29 -16 40 -18
40 -7 0 14 -29 48 -30 35z"/>
<path d="M1057 1467 c-4 -10 -7 -22 -7 -27 0 -11 39 0 47 13 4 6 0 8 -10 4
-10 -4 -17 0 -19 11 -3 15 -4 15 -11 -1z"/>
<path d="M2038 1413 c18 -2 45 -2 60 0 15 2 0 4 -33 4 -33 0 -45 -2 -27 -4z"/>
<path d="M2625 1466 c-17 -13 -18 -17 -5 -25 18 -12 33 1 28 23 -3 15 -5 16
-23 2z"/>
<path d="M348 1253 c17 -2 47 -2 65 0 17 2 3 4 -33 4 -36 0 -50 -2 -32 -4z"/>
<path d="M878 1253 c17 -2 47 -2 65 0 17 2 3 4 -33 4 -36 0 -50 -2 -32 -4z"/>
<path d="M1377 1290 c3 -11 11 -19 17 -17 17 6 13 31 -6 35 -12 2 -15 -2 -11
-18z"/>
<path d="M1658 1253 c18 -2 45 -2 60 0 15 2 0 4 -33 4 -33 0 -45 -2 -27 -4z"/>
<path d="M2168 1253 c17 -2 47 -2 65 0 17 2 3 4 -33 4 -36 0 -50 -2 -32 -4z"/>
<path d="M287 1113 c-8 -14 18 -37 33 -28 15 9 12 28 -4 22 -8 -3 -16 -1 -19
6 -2 8 -5 8 -10 0z"/>
<path d="M545 1104 c-19 -19 -12 -32 8 -15 8 6 22 9 31 5 22 -9 20 3 -3 16
-15 7 -24 6 -36 -6z"/>
<path d="M498 1063 c18 -2 45 -2 60 0 15 2 0 4 -33 4 -33 0 -45 -2 -27 -4z"/>
<path d="M750 1117 c0 -11 -6 -15 -17 -11 -15 5 -15 3 1 -10 31 -25 49 -21 35
7 -16 31 -19 33 -19 14z"/>
<path d="M803 1107 c-15 -32 1 -37 33 -11 15 13 16 15 2 10 -10 -3 -18 1 -20
11 -2 12 -6 9 -15 -10z"/>
<path d="M1252 1094 c9 -9 21 -13 27 -10 20 13 11 26 -16 26 -25 0 -26 -1 -11
-16z"/>
<path d="M1320 1101 c0 -19 22 -23 38 -7 15 15 14 16 -11 16 -15 0 -27 -4 -27
-9z"/>
<path d="M2558 1063 c18 -2 45 -2 60 0 15 2 0 4 -33 4 -33 0 -45 -2 -27 -4z"/>
<path d="M357 903 c18 -2 50 -2 70 0 21 2 7 4 -32 4 -38 0 -55 -2 -38 -4z"/>
<path d="M945 954 c-17 -13 -18 -16 -5 -24 18 -11 33 2 28 23 -3 14 -5 14 -23
1z"/>
<path d="M2394 945 c-18 -15 -18 -15 9 -9 17 4 27 2 27 -5 0 -6 5 -11 10 -11
7 0 7 6 0 20 -13 24 -20 25 -46 5z"/>
<path d="M2482 948 c-17 -17 -15 -33 2 -19 7 6 22 8 32 4 17 -6 17 -5 5 10
-16 20 -23 21 -39 5z"/>
<path d="M2428 903 c17 -2 47 -2 65 0 17 2 3 4 -33 4 -36 0 -50 -2 -32 -4z"/>
<path d="M2680 963 c0 -7 -8 -13 -17 -13 -14 -1 -12 -4 7 -15 29 -16 40 -18
40 -7 0 14 -29 48 -30 35z"/>
<path d="M2737 957 c-4 -10 -7 -22 -7 -27 0 -11 39 0 47 13 4 6 0 8 -10 4 -10
-4 -17 0 -19 11 -3 15 -4 15 -11 -1z"/>
<path d="M1645 941 c-12 -11 -3 -50 15 -66 16 -15 22 -16 35 -5 46 38 40 78
-11 77 -19 -1 -37 -3 -39 -6z"/>
<path d="M488 743 c17 -2 47 -2 65 0 17 2 3 4 -33 4 -36 0 -50 -2 -32 -4z"/>
<path d="M981 781 c-14 -25 -14 -31 -1 -31 6 0 10 7 10 15 0 18 16 20 24 3 3
-7 5 -4 3 6 -3 27 -24 31 -36 7z"/>
<path d="M1064 785 c-4 -9 -4 -19 0 -22 3 -4 6 -1 6 5 0 7 5 12 10 12 6 0 10
-7 10 -15 0 -8 4 -15 10 -15 13 0 -4 43 -18 48 -7 2 -15 -4 -18 -13z"/>
<path d="M1243 743 c8 -7 108 -5 116 3 2 2 -24 4 -59 4 -35 0 -60 -3 -57 -7z"/>
<path d="M1530 790 c0 -5 -7 -7 -15 -4 -8 4 -15 1 -15 -4 0 -18 20 -24 35 -12
17 14 20 30 5 30 -5 0 -10 -4 -10 -10z"/>
<path d="M1580 788 c0 -26 20 -32 38 -13 16 16 16 17 1 12 -9 -3 -22 0 -28 6
-8 8 -11 7 -11 -5z"/>
<path d="M1821 786 c-8 -9 -11 -20 -7 -23 4 -4 11 -1 15 6 7 11 11 10 19 -5 6
-10 13 -16 17 -13 3 3 -3 16 -13 29 -16 20 -19 21 -31 6z"/>
<path d="M2004 743 c7 -7 108 -5 115 3 2 2 -24 4 -59 4 -35 0 -60 -3 -56 -7z"/>
<path d="M2288 743 c18 -2 45 -2 60 0 15 2 0 4 -33 4 -33 0 -45 -2 -27 -4z"/>
<path d="M1373 603 c-7 -3 -13 -9 -13 -15 0 -6 6 -8 14 -5 8 3 17 1 19 -6 2
-7 8 -9 13 -4 11 10 -18 36 -33 30z"/>
<path d="M1633 554 c4 -4 27 -7 52 -7 25 0 48 3 52 7 3 3 -20 6 -52 6 -32 0
-55 -3 -52 -6z"/>
<path d="M1967 603 c-8 -14 18 -37 33 -28 15 9 12 28 -4 22 -8 -3 -16 -1 -19
6 -2 8 -5 8 -10 0z"/>
<path d="M2430 607 c0 -11 -6 -15 -17 -11 -15 5 -15 3 1 -10 31 -25 49 -21 35
7 -16 31 -19 33 -19 14z"/>
<path d="M2483 597 c-15 -32 1 -37 33 -11 15 13 16 15 2 10 -10 -3 -18 1 -20
11 -2 12 -6 9 -15 -10z"/>
<path d="M723 443 c-21 -8 -15 -22 7 -16 11 3 20 0 20 -6 0 -6 5 -11 10 -11 7
0 7 6 0 20 -11 20 -16 22 -37 13z"/>
<path d="M802 438 c-17 -17 -15 -33 2 -19 7 6 22 8 32 4 17 -6 17 -5 5 10 -16
20 -23 21 -39 5z"/>
<path d="M1000 453 c0 -7 -8 -13 -17 -13 -14 -1 -12 -4 7 -15 29 -16 40 -18
40 -7 0 14 -29 48 -30 35z"/>
<path d="M1057 447 c-4 -10 -7 -22 -7 -27 0 -11 39 0 47 13 4 6 0 8 -10 4 -10
-4 -17 0 -19 11 -3 15 -4 15 -11 -1z"/>
<path d="M1752 458 c-17 -17 -15 -32 6 -51 23 -21 27 -21 46 -1 15 14 17 14
32 0 18 -19 48 -8 58 21 6 17 5 17 -8 0 -18 -24 -51 -18 -51 8 0 15 7 20 27
20 14 -1 24 3 22 7 -8 13 -52 9 -57 -4 -4 -10 -7 -10 -18 0 -17 15 -41 16 -57
0z m53 -23 c0 -22 -31 -33 -47 -17 -17 17 -1 44 24 40 15 -2 23 -10 23 -23z"/>
<path d="M2625 444 c-17 -13 -18 -16 -5 -24 18 -11 33 2 28 23 -3 14 -5 14
-23 1z"/>
<path d="M348 233 c17 -2 47 -2 65 0 17 2 3 4 -33 4 -36 0 -50 -2 -32 -4z"/>
<path d="M1180 311 c0 -6 7 -11 16 -11 13 0 14 -3 4 -15 -12 -14 -5 -39 9 -31
15 10 6 61 -11 64 -10 2 -18 -1 -18 -7z"/>
<path d="M940 2990 c-13 -9 -13 -11 0 -19 17 -12 30 -5 30 15 0 16 -9 18 -30
4z"/>
<path d="M2393 2984 c-17 -13 -16 -14 10 -8 17 4 27 2 27 -5 0 -6 4 -11 10
-11 13 0 1 27 -15 34 -7 2 -21 -2 -32 -10z"/>
<path d="M2482 2988 c-17 -17 -15 -33 2 -19 7 6 22 8 32 4 17 -6 17 -5 5 10
-16 20 -23 21 -39 5z"/>
<path d="M2667 2991 c-17 -6 -16 -8 8 -19 31 -15 38 -12 29 12 -7 17 -10 18
-37 7z"/>
<path d="M1645 2982 c-12 -12 -4 -50 15 -67 16 -15 22 -16 35 -5 27 22 38 51
26 63 -12 12 -66 19 -76 9z"/>
<path d="M357 2943 c18 -2 50 -2 70 0 21 2 7 4 -32 4 -38 0 -55 -2 -38 -4z"/>
<path d="M1158 2943 c18 -2 45 -2 60 0 15 2 0 4 -33 4 -33 0 -45 -2 -27 -4z"/>
<path d="M1908 2943 c18 -2 45 -2 60 0 15 2 0 4 -33 4 -33 0 -45 -2 -27 -4z"/>
<path d="M2417 2943 c18 -2 50 -2 70 0 21 2 7 4 -32 4 -38 0 -55 -2 -38 -4z"/>
<path d="M2932 2624 c9 -9 21 -13 27 -10 20 13 11 26 -16 26 -25 0 -26 -1 -11
-16z"/>
<path d="M7 2473 c-4 -3 -7 -24 -7 -46 0 -35 2 -38 16 -27 23 20 35 47 28 64
-6 16 -26 21 -37 9z"/>
<path d="M2932 1604 c9 -9 21 -13 27 -10 20 13 11 26 -16 26 -25 0 -26 -1 -11
-16z"/>
<path d="M7 1453 c-4 -3 -7 -24 -7 -46 0 -35 2 -38 16 -27 27 23 37 50 23 66
-13 15 -22 18 -32 7z"/>
<path d="M2932 584 c9 -9 21 -13 27 -10 20 13 11 26 -16 26 -25 0 -26 -1 -11
-16z"/>
<path d="M7 433 c-4 -3 -7 -24 -7 -46 0 -35 2 -38 16 -27 27 23 37 50 23 66
-13 15 -22 18 -32 7z"/>
<path d="M750 97 c0 -11 -6 -15 -17 -11 -15 5 -15 3 1 -10 31 -25 49 -21 35 7
-16 31 -19 33 -19 14z"/>
<path d="M803 87 c-15 -32 1 -37 33 -11 15 13 16 15 2 10 -10 -3 -18 1 -20 11
-2 12 -6 9 -15 -10z"/>
<path d="M287 93 c-8 -14 18 -37 33 -28 15 9 12 28 -4 22 -8 -3 -16 -1 -19 6
-2 8 -5 8 -10 0z"/>
<path d="M545 80 c-10 -11 -13 -20 -7 -20 6 0 14 5 17 10 4 6 15 8 26 5 24 -8
25 1 0 14 -14 8 -23 6 -36 -9z"/>
<path d="M1252 74 c9 -9 21 -13 27 -10 20 13 11 26 -16 26 -25 0 -26 -1 -11
-16z"/>
<path d="M1320 81 c0 -19 22 -23 38 -7 15 15 14 16 -11 16 -15 0 -27 -4 -27
-9z"/>
<path d="M214 43 c7 -7 98 -5 105 3 2 2 -22 4 -54 4 -32 0 -55 -3 -51 -7z"/>
<path d="M498 43 c18 -2 45 -2 60 0 15 2 0 4 -33 4 -33 0 -45 -2 -27 -4z"/>
<path d="M2558 43 c18 -2 45 -2 60 0 15 2 0 4 -33 4 -33 0 -45 -2 -27 -4z"/>
</g>
</svg>
